<svg xmlns="http://www.w3.org/2000/svg">
<path d="M59.73 22.18H54.03H19.85C19.57 22.18 19.34 22.41 19.34 22.69V61.14C19.34 61.42 19.57 61.65 19.85 61.65H59.73C60.01 61.65 60.24 61.42 60.24 61.14V22.7C60.24 22.42 60.01 22.19 59.73 22.19V22.18Z" fill="#CEE6E5"/>
<path d="M54.03 46.4H42.63C42.3483 46.4 42.12 46.6284 42.12 46.91V52.61C42.12 52.8917 42.3483 53.12 42.63 53.12H54.03C54.3117 53.12 54.54 52.8917 54.54 52.61V46.91C54.54 46.6284 54.3117 46.4 54.03 46.4Z" fill="#7BBCB9"/>
<path d="M36.94 46.4H25.54C25.2584 46.4 25.03 46.6284 25.03 46.91V52.61C25.03 52.8917 25.2584 53.12 25.54 53.12H36.94C37.2217 53.12 37.45 52.8917 37.45 52.61V46.91C37.45 46.6284 37.2217 46.4 36.94 46.4Z" fill="#7BBCB9"/>
<path d="M54.03 33.58H42.63C42.3483 33.58 42.12 33.8083 42.12 34.09V39.79C42.12 40.0716 42.3483 40.3 42.63 40.3H54.03C54.3117 40.3 54.54 40.0716 54.54 39.79V34.09C54.54 33.8083 54.3117 33.58 54.03 33.58Z" fill="#7BBCB9"/>
<path d="M36.94 33.58H25.54C25.2584 33.58 25.03 33.8083 25.03 34.09V39.79C25.03 40.0716 25.2584 40.3 25.54 40.3H36.94C37.2217 40.3 37.45 40.0716 37.45 39.79V34.09C37.45 33.8083 37.2217 33.58 36.94 33.58Z" fill="#7BBCB9"/>
<path d="M49.7599 27.48C48.6899 27.48 47.8199 26.61 47.8199 25.54V19.85C47.8199 18.78 48.6899 17.91 49.7599 17.91C50.8299 17.91 51.6999 18.78 51.6999 19.85V25.55C51.6999 26.62 50.8299 27.49 49.7599 27.49V27.48Z" fill="#7BBCB9"/>
<path d="M29.82 27.48C28.75 27.48 27.88 26.61 27.88 25.54V19.85C27.88 18.78 28.75 17.91 29.82 17.91C30.89 17.91 31.76 18.78 31.76 19.85V25.55C31.76 26.62 30.89 27.49 29.82 27.49V27.48Z" fill="#7BBCB9"/>
<path d="M45.48 22.18H34.09V23.21H45.48V22.18Z" fill="#CEE6E5"/>
</svg>
