<svg xmlns="http://www.w3.org/2000/svg">
<path d="M25.9833 23.69C27.2733 23.69 28.3233 22.64 28.3233 21.35C28.3233 20.06 27.2733 19.01 25.9833 19.01C25.1133 19.01 24.3633 19.48 23.9533 20.18H23.6433C21.7033 20.18 20.1233 21.75 20.1233 23.7V34.25C19.4833 34.23 18.9533 34.76 19.0033 35.4C19.2733 38.39 20.5833 41.2 22.7233 43.34C24.2933 44.91 26.2233 46.03 28.3233 46.63V49.46C28.3233 50.99 29.3033 52.29 30.6633 52.78C30.7133 57.43 34.4933 61.18 39.1533 61.18C43.8133 61.18 47.6433 57.38 47.6433 52.69V48C47.6433 45.57 49.6133 43.61 52.0333 43.61C54.4533 43.61 56.4233 45.58 56.4233 48V50.84C55.0533 51.32 54.0833 52.62 54.0833 54.16C54.0833 56.1 55.6533 57.68 57.6033 57.68C59.5533 57.68 61.1233 56.11 61.1233 54.16C61.1233 52.63 60.1433 51.33 58.7833 50.84V48C58.7833 44.28 55.7633 41.26 52.0433 41.26C48.3233 41.26 45.3033 44.28 45.3033 48V52.69C45.3033 56.09 42.5533 58.84 39.1533 58.84C35.7533 58.84 33.0533 56.14 33.0033 52.78C34.3633 52.3 35.3433 51 35.3433 49.47V46.64C37.4433 46.05 39.3733 44.92 40.9433 43.35C43.0833 41.21 44.3933 38.4 44.6633 35.41C44.7233 34.77 44.1933 34.24 43.5433 34.24V23.69C43.5433 21.75 41.9733 20.17 40.0233 20.17H39.7133C39.3033 19.47 38.5533 19 37.6833 19C36.3933 19 35.3433 20.05 35.3433 21.34C35.3433 22.63 36.3933 23.68 37.6833 23.68C38.5533 23.68 39.3033 23.21 39.7133 22.51H40.0233C40.6733 22.51 41.1933 23.03 41.1933 23.68V34.23H41.4433C40.7933 34.23 40.2833 34.76 40.1933 35.4C39.9433 37.21 39.1033 38.9 37.8033 40.21C36.2233 41.79 34.0733 42.68 31.8333 42.68C29.5933 42.68 27.4433 41.79 25.8633 40.21C24.5533 38.9 23.7233 37.21 23.4733 35.4C23.3833 34.76 22.8633 34.23 22.2233 34.23H22.4733V23.69C22.4733 23.04 22.9933 22.52 23.6433 22.52H23.9533C24.3633 23.22 25.1133 23.69 25.9833 23.69Z" fill="#CEE6E5"/>
<path d="M57.9434 58.5C60.0862 58.5 61.8234 56.7629 61.8234 54.62C61.8234 52.4771 60.0862 50.74 57.9434 50.74C55.8005 50.74 54.0634 52.4771 54.0634 54.62C54.0634 56.7629 55.8005 58.5 57.9434 58.5Z" fill="#7BBCB9"/>
<path d="M26.0733 24.14C27.4927 24.14 28.6433 22.9894 28.6433 21.57C28.6433 20.1506 27.4927 19 26.0733 19C24.6539 19 23.5033 20.1506 23.5033 21.57C23.5033 22.9894 24.6539 24.14 26.0733 24.14Z" fill="#7BBCB9"/>
<path d="M37.5033 24.14C38.9227 24.14 40.0733 22.9894 40.0733 21.57C40.0733 20.1506 38.9227 19 37.5033 19C36.084 19 34.9333 20.1506 34.9333 21.57C34.9333 22.9894 36.084 24.14 37.5033 24.14Z" fill="#7BBCB9"/>
</svg>
