<svg xmlns="http://www.w3.org/2000/svg">
<path d="M37.08 22.9499C36.65 25.2999 34.59 27.0799 32.12 27.0799C29.34 27.0799 27.08 24.8199 27.08 22.0399C27.08 21.7099 27.11 21.3799 27.17 21.0699C29.09 22.2399 30.77 22.8999 32.52 23.1299C34 23.3299 35.47 23.2199 37.08 22.9499Z" fill="#7BBCB9"/>
<path d="M28.27 18.79C29.19 17.7 30.58 17 32.12 17C34.34 17 36.22 18.43 36.9 20.43C35.31 20.71 34.06 20.81 32.86 20.64C31.5 20.45 30.1 19.92 28.27 18.79Z" fill="#7BBCB9"/>
<path d="M27.71 28.35C24.26 28.35 21.53 30.45 19.78 33C18.02 35.57 17 38.89 17 42.18C17 43.93 17.81 45.97 18.39 47.25C18.71 47.96 19.03 48.58 19.26 49.03C19.36 49.23 19.45 49.39 19.52 49.52V59.87C19.52 61.26 20.65 62.39 22.04 62.39C23.43 62.39 24.56 61.26 24.56 59.87V45.43C24.93 42.39 25.79 39.64 26.78 37.39L27.61 40.61C27.9 41.72 28.9 42.5 30.05 42.5H36.53C37.92 42.5 39.05 41.37 39.05 39.98C39.05 38.59 37.92 37.46 36.53 37.46H32L30.15 30.24C29.86 29.13 28.86 28.35 27.71 28.35Z" fill="#7BBCB9"/>
<path d="M56.07 32.13C58.85 32.13 61.11 29.87 61.11 27.09C61.11 24.31 58.85 22.05 56.07 22.05C53.29 22.05 51.03 24.31 51.03 27.09C51.03 29.87 53.29 32.13 56.07 32.13Z" fill="#CEE6E5"/>
<path fill-rule="evenodd" clip-rule="evenodd" d="M48.79 32.18C49.95 31.93 51.13 32.53 51.62 33.61L54.96 41.03H59.86C61.25 41.03 62.38 42.16 62.38 43.55C62.38 44.94 61.25 46.07 59.86 46.07H53.33C52.34 46.07 51.44 45.49 51.03 44.58L49.22 40.56C48.64 41.62 48.26 42.6 48.02 43.61C47.77 44.67 47.66 45.83 47.68 47.25C48.09 47.42 48.54 47.59 49.02 47.76C50.13 48.14 51.28 48.46 52.22 48.71C52.38 48.75 52.54 48.79 52.69 48.83C52.97 48.9 53.22 48.97 53.43 49.03C53.59 49.07 53.76 49.12 53.91 49.17H53.92C54 49.2 54.33 49.3 54.65 49.49C55.06 49.74 55.34 50.07 55.4 50.14C55.52 50.29 55.64 50.44 55.74 50.58C55.96 50.87 56.21 51.24 56.48 51.65C57.03 52.46 57.69 53.5 58.33 54.51C58.97 55.52 59.6 56.53 60.06 57.27C60.29 57.64 60.48 57.95 60.62 58.17L60.83 58.51L58.68 59.83C60.1133 58.95 60.83 58.51 60.83 58.51C61.56 59.7 61.19 61.25 60 61.98C58.81 62.71 57.26 62.34 56.53 61.15L56.32 60.82C56.19 60.61 56 60.3 55.77 59.93C55.31 59.19 54.7 58.2 54.06 57.21C53.43 56.21 52.79 55.22 52.28 54.47C52.11 54.22 51.96 54 51.84 53.83C51.71 53.8 51.57 53.76 51.42 53.72C51.26 53.68 51.09 53.63 50.9 53.58C49.94 53.32 48.65 52.97 47.37 52.52L47.24 52.47V62.36H44.72V53.54H30.85V62.36H28.33V49.75H42.24C42.13 49.64 42.02 49.52 41.92 49.39C41.42 48.78 40.94 47.91 40.94 46.81C40.94 40.88 42.54 37.2 44.49 34.96C45.45 33.86 46.44 33.17 47.23 32.76C47.62 32.55 47.97 32.41 48.24 32.32C48.37 32.27 48.49 32.24 48.58 32.21C48.63 32.2 48.67 32.19 48.7 32.18C48.72 32.18 48.73 32.18 48.75 32.17H48.77C48.77 32.17 48.77 32.17 49.31 34.63L48.78 32.17L48.79 32.18ZM52.4 54.01C52.4 54.01 52.38 54.01 52.36 53.99C52.39 54 52.4 54.01 52.4 54.01ZM51.57 53.47C51.57 53.47 51.52 53.41 51.56 53.45V53.47H51.57Z" fill="#CEE6E5"/>
<path d="M39.05 24.56C40.09 24.56 40.94 23.15 40.94 21.41C40.94 19.67 40.09 18.26 39.05 18.26C38.01 18.26 37.16 19.67 37.16 21.41C37.16 23.15 38.01 24.56 39.05 24.56Z" fill="#7BBCB9"/>
</svg>
