<svg xmlns="http://www.w3.org/2000/svg">
<path fill-rule="evenodd" clip-rule="evenodd" d="M57.02 52.76V23.74C57.02 21.06 54.84 18.88 52.16 18.88H44.87L43.49 17.47C41.58 15.51 38.43 15.51 36.52 17.47L35.14 18.88H27.85C25.18 18.88 23 21.05 23 23.74V52.76C23 55.44 25.18 57.62 27.86 57.62H32.72V60.05H38.8V64.91H41.23V60.05H47.31V57.62H52.17C54.85 57.62 57.03 55.44 57.03 52.76H57.02Z" fill="#CEE6E5"/>
<path fill-rule="evenodd" clip-rule="evenodd" d="M54.13 42.17C51.81 40.82 48.47 40.12 44.51 42.46C41.25 44.38 38.19 44.9 34.85 44.97C33.36 45 31.85 44.94 30.22 44.88C30 44.88 29.77 44.86 29.55 44.85C28.07 44.8 26.51 44.75 24.85 44.77V52.16C24.85 54.12 26.44 55.71 28.4 55.71H33.92V58.7H45.73V55.71H51.76C53.72 55.71 55.31 54.12 55.31 52.16V42.95C54.96 42.68 54.57 42.41 54.14 42.16L54.13 42.17Z" fill="#7BBCB9"/>
</svg>
