<svg xmlns="http://www.w3.org/2000/svg">
<path d="M47.65 41.5C52.15 38.87 54.97 34.03 54.97 28.76C54.97 20.62 48.35 14 40.21 14C32.07 14 25.45 20.62 25.45 28.76C25.45 34.03 28.28 38.87 32.77 41.5C21.81 44.8 14 54.79 14 65.81H66.42C66.42 54.79 58.61 44.8 47.64 41.5H47.65Z" fill="#CEE6E5"/>
<path d="M40.2101 61.27C40.0601 61.27 39.9201 61.21 39.8101 61.11L33.6701 54.96C32.8801 54.17 32.4401 53.11 32.4301 51.99C32.4301 50.86 32.8601 49.79 33.6701 48.99C34.4701 48.19 35.5201 47.76 36.6501 47.75C37.7801 47.75 38.8401 48.19 39.6401 48.99L40.2001 49.56L40.7701 48.99C42.3601 47.4 45.1501 47.4 46.7401 48.99C47.5601 49.81 48.0001 50.89 47.9801 52.05C47.9601 53.15 47.5201 54.18 46.7401 54.96L40.6001 61.11C40.4901 61.21 40.3501 61.27 40.2001 61.27H40.2101Z" fill="#7BBCB9"/>
</svg>
