<svg xmlns="http://www.w3.org/2000/svg">
<path d="M23 19C25.088 19 26.78 20.692 26.78 22.78C26.78 24.868 25.088 26.56 23 26.56C20.912 26.56 19.22 24.868 19.22 22.78C19.22 20.692 20.912 19 23 19Z" fill="#CEE6E5"/>
<path d="M21.245 27.91H24.755C27.887 27.91 30.425 30.448 30.425 33.58V35.44C30.425 36.053 29.928 36.55 29.315 36.55H16.685C16.072 36.55 15.575 36.053 15.575 35.44V33.58C15.575 30.448 18.113 27.91 21.245 27.91Z" fill="#CEE6E5"/>
<path d="M40 19C42.088 19 43.78 20.692 43.78 22.78C43.78 24.868 42.088 26.56 40 26.56C37.912 26.56 36.22 24.868 36.22 22.78C36.22 20.692 37.912 19 40 19Z" fill="#CEE6E5"/>
<path d="M38.245 27.91H41.755C44.887 27.91 47.425 30.448 47.425 33.58V35.44C47.425 36.053 46.928 36.55 46.315 36.55H33.685C33.072 36.55 32.575 36.053 32.575 35.44V33.58C32.575 30.448 35.113 27.91 38.245 27.91Z" fill="#CEE6E5"/>
<path d="M57 19C59.088 19 60.78 20.692 60.78 22.78C60.78 24.868 59.088 26.56 57 26.56C54.912 26.56 53.22 24.868 53.22 22.78C53.22 20.692 54.912 19 57 19Z" fill="#7BBCB9"/>
<path d="M55.245 27.91H58.755C61.887 27.91 64.425 30.448 64.425 33.58V35.44C64.425 36.053 63.928 36.55 63.315 36.55H50.685C50.072 36.55 49.575 36.053 49.575 35.44V33.58C49.575 30.448 52.113 27.91 55.245 27.91Z" fill="#7BBCB9"/>
<path d="M23 41C25.088 41 26.78 42.692 26.78 44.78C26.78 46.868 25.088 48.56 23 48.56C20.912 48.56 19.22 46.868 19.22 44.78C19.22 42.692 20.912 41 23 41Z" fill="#7BBCB9"/>
<path d="M21.245 49.91H24.755C27.887 49.91 30.425 52.448 30.425 55.58V57.44C30.425 58.053 29.928 58.55 29.315 58.55H16.685C16.072 58.55 15.575 58.053 15.575 57.44V55.58C15.575 52.448 18.113 49.91 21.245 49.91Z" fill="#7BBCB9"/>
<path d="M40 41C42.088 41 43.78 42.692 43.78 44.78C43.78 46.868 42.088 48.56 40 48.56C37.912 48.56 36.22 46.868 36.22 44.78C36.22 42.692 37.912 41 40 41Z" fill="#CEE6E5"/>
<path d="M38.245 49.91H41.755C44.887 49.91 47.425 52.448 47.425 55.58V57.44C47.425 58.053 46.928 58.55 46.315 58.55H33.685C33.072 58.55 32.575 58.053 32.575 57.44V55.58C32.575 52.448 35.113 49.91 38.245 49.91Z" fill="#CEE6E5"/>
<path d="M57 41C59.088 41 60.78 42.692 60.78 44.78C60.78 46.868 59.088 48.56 57 48.56C54.912 48.56 53.22 46.868 53.22 44.78C53.22 42.692 54.912 41 57 41Z" fill="#CEE6E5"/>
<path d="M55.245 49.91H58.755C61.887 49.91 64.425 52.448 64.425 55.58V57.44C64.425 58.053 63.928 58.55 63.315 58.55H50.685C50.072 58.55 49.575 58.053 49.575 57.44V55.58C49.575 52.448 52.113 49.91 55.245 49.91Z" fill="#CEE6E5"/>
</svg>
