<svg xmlns="http://www.w3.org/2000/svg">
<path d="M67.7 39.61C67.7 53.75 56.23 65.22 42.09 65.22C27.95 65.22 16.48 53.76 16.48 39.61C16.48 25.46 27.94 14 42.09 14C56.24 14 67.7 25.47 67.7 39.61ZM42.09 22.58C32.69 22.58 25.06 30.2 25.06 39.61C25.06 49.02 32.68 56.64 42.09 56.64C51.5 56.64 59.12 49.02 59.12 39.61C59.12 30.2 51.5 22.58 42.09 22.58Z" fill="#CEE6E5"/>
<path d="M42.09 56.6601H42.34C43.75 56.6501 51.51 56.2301 56.23 49.0801H12V56.6601H15.61V62.4001H13.15V64.0301H19.71V62.4001H17.25V56.6601H42.1H42.09Z" fill="#7BBCB9"/>
<path d="M45.58 17.8201H37.41V19.3401H45.58V17.8201Z" fill="#7BBCB9"/>
</svg>
