<svg xmlns="http://www.w3.org/2000/svg">
<path d="M52.89 14H27.11C26.497 14 26 14.497 26 15.11V43.89C26 44.503 26.497 45 27.11 45H52.89C53.503 45 54 44.503 54 43.89V15.11C54 14.497 53.503 14 52.89 14Z" fill="#CEE6E5"/>
<path d="M43.4 20H30.6C30.269 20 30 20.269 30 20.6V21.9C30 22.231 30.269 22.5 30.6 22.5H43.4C43.731 22.5 44 22.231 44 21.9V20.6C44 20.269 43.731 20 43.4 20Z" fill="#7BBCB9"/>
<path d="M49.4 26H30.6C30.269 26 30 26.269 30 26.6V27.9C30 28.231 30.269 28.5 30.6 28.5H49.4C49.731 28.5 50 28.231 50 27.9V26.6C50 26.269 49.731 26 49.4 26Z" fill="#7BBCB9"/>
<path d="M46.4 32H30.6C30.269 32 30 32.269 30 32.6V33.9C30 34.231 30.269 34.5 30.6 34.5H46.4C46.731 34.5 47 34.231 47 33.9V32.6C47 32.269 46.731 32 46.4 32Z" fill="#7BBCB9"/>
<path d="M40.4 38H30.6C30.269 38 30 38.269 30 38.6V39.9C30 40.231 30.269 40.5 30.6 40.5H40.4C40.731 40.5 41 40.231 41 39.9V38.6C41 38.269 40.731 38 40.4 38Z" fill="#7BBCB9"/>
<path d="M62.89 47H17.11C16.497 47 16 47.497 16 48.11V62.89C16 63.503 16.497 64 17.11 64H62.89C63.503 64 64 63.503 64 62.89V48.11C64 47.497 63.503 47 62.89 47Z" fill="#CEE6E5"/>
<path d="M22.9 50H20.1C19.769 50 19.5 50.269 19.5 50.6V52C19.5 52.331 19.769 52.6 20.1 52.6H22.9C23.231 52.6 23.5 52.331 23.5 52V50.6C23.5 50.269 23.231 50 22.9 50Z" fill="#7BBCB9"/>
<path d="M28.9 50H26.1C25.769 50 25.5 50.269 25.5 50.6V52C25.5 52.331 25.769 52.6 26.1 52.6H28.9C29.231 52.6 29.5 52.331 29.5 52V50.6C29.5 50.269 29.231 50 28.9 50Z" fill="#7BBCB9"/>
<path d="M34.9 50H32.1C31.769 50 31.5 50.269 31.5 50.6V52C31.5 52.331 31.769 52.6 32.1 52.6H34.9C35.231 52.6 35.5 52.331 35.5 52V50.6C35.5 50.269 35.231 50 34.9 50Z" fill="#7BBCB9"/>
<path d="M40.9 50H38.1C37.769 50 37.5 50.269 37.5 50.6V52C37.5 52.331 37.769 52.6 38.1 52.6H40.9C41.231 52.6 41.5 52.331 41.5 52V50.6C41.5 50.269 41.231 50 40.9 50Z" fill="#7BBCB9"/>
<path d="M46.9 50H44.1C43.769 50 43.5 50.269 43.5 50.6V52C43.5 52.331 43.769 52.6 44.1 52.6H46.9C47.231 52.6 47.5 52.331 47.5 52V50.6C47.5 50.269 47.231 50 46.9 50Z" fill="#7BBCB9"/>
<path d="M52.9 50H50.1C49.769 50 49.5 50.269 49.5 50.6V52C49.5 52.331 49.769 52.6 50.1 52.6H52.9C53.231 52.6 53.5 52.331 53.5 52V50.6C53.5 50.269 53.231 50 52.9 50Z" fill="#7BBCB9"/>
<path d="M58.9 50H56.1C55.769 50 55.5 50.269 55.5 50.6V52C55.5 52.331 55.769 52.6 56.1 52.6H58.9C59.231 52.6 59.5 52.331 59.5 52V50.6C59.5 50.269 59.231 50 58.9 50Z" fill="#7BBCB9"/>
<path d="M22.9 54.5H20.1C19.769 54.5 19.5 54.769 19.5 55.1V56.5C19.5 56.831 19.769 57.1 20.1 57.1H22.9C23.231 57.1 23.5 56.831 23.5 56.5V55.1C23.5 54.769 23.231 54.5 22.9 54.5Z" fill="#7BBCB9"/>
<path d="M28.9 54.5H26.1C25.769 54.5 25.5 54.769 25.5 55.1V56.5C25.5 56.831 25.769 57.1 26.1 57.1H28.9C29.231 57.1 29.5 56.831 29.5 56.5V55.1C29.5 54.769 29.231 54.5 28.9 54.5Z" fill="#7BBCB9"/>
<path d="M34.9 54.5H32.1C31.769 54.5 31.5 54.769 31.5 55.1V56.5C31.5 56.831 31.769 57.1 32.1 57.1H34.9C35.231 57.1 35.5 56.831 35.5 56.5V55.1C35.5 54.769 35.231 54.5 34.9 54.5Z" fill="#7BBCB9"/>
<path d="M40.9 54.5H38.1C37.769 54.5 37.5 54.769 37.5 55.1V56.5C37.5 56.831 37.769 57.1 38.1 57.1H40.9C41.231 57.1 41.5 56.831 41.5 56.5V55.1C41.5 54.769 41.231 54.5 40.9 54.5Z" fill="#7BBCB9"/>
<path d="M46.9 54.5H44.1C43.769 54.5 43.5 54.769 43.5 55.1V56.5C43.5 56.831 43.769 57.1 44.1 57.1H46.9C47.231 57.1 47.5 56.831 47.5 56.5V55.1C47.5 54.769 47.231 54.5 46.9 54.5Z" fill="#7BBCB9"/>
<path d="M52.9 54.5H50.1C49.769 54.5 49.5 54.769 49.5 55.1V56.5C49.5 56.831 49.769 57.1 50.1 57.1H52.9C53.231 57.1 53.5 56.831 53.5 56.5V55.1C53.5 54.769 53.231 54.5 52.9 54.5Z" fill="#7BBCB9"/>
<path d="M58.9 54.5H56.1C55.769 54.5 55.5 54.769 55.5 55.1V56.5C55.5 56.831 55.769 57.1 56.1 57.1H58.9C59.231 57.1 59.5 56.831 59.5 56.5V55.1C59.5 54.769 59.231 54.5 58.9 54.5Z" fill="#7BBCB9"/>
<path d="M51.4 59.5H28.6C28.269 59.5 28 59.769 28 60.1V61.5C28 61.831 28.269 62.1 28.6 62.1H51.4C51.731 62.1 52 61.831 52 61.5V60.1C52 59.769 51.731 59.5 51.4 59.5Z" fill="#7BBCB9"/>
</svg>
