<svg xmlns="http://www.w3.org/2000/svg">
<path fill-rule="evenodd" clip-rule="evenodd" d="M35.0212 16.0792C27.9812 12.1192 21.7512 13.9792 16.5712 20.2692C11.5712 26.3392 14.9812 37.2792 17.4312 45.1492C18.0112 47.0292 18.5412 48.7292 18.8912 50.1392C20.7012 57.4992 22.4312 62.0892 26.3812 65.4192C28.3312 67.0592 30.5512 64.2392 32.8912 61.2592C34.9212 58.6692 37.0412 55.9692 39.1612 55.9692C41.2512 55.9692 43.3312 58.6592 45.3312 61.2492C47.6412 64.2392 49.8312 67.0692 51.7812 65.4292C54.7912 62.8792 56.1612 61.0192 57.8212 55.7692C59.6312 50.0492 62.5412 43.2092 64.8612 35.3192C66.4912 29.7692 66.6912 24.1192 61.9812 18.6692C55.2712 10.8892 45.9612 14.9092 41.6312 17.4792L47.5012 22.5092C48.1812 23.0892 48.2612 24.1192 47.6812 24.7992C47.1012 25.4792 46.0712 25.5592 45.3912 24.9792L35.0212 16.0792Z" fill="#CEE6E5"/>
</svg>
