<svg xmlns="http://www.w3.org/2000/svg">
<path d="M61.48 62H18.52C18.23 62 18 61.77 18 61.48V28.54C18 28.25 18.23 28.02 18.52 28.02H49.51V18.52C49.51 18.23 49.74 18 50.03 18H61.49C61.77 18 62.01 18.23 62.01 18.52V61.48C62.01 61.76 61.78 62 61.49 62H61.48Z" fill="#CEE6E5"/>
<path d="M39.63 51.97H32.78V60.96H39.63V51.97Z" fill="#7BBCB9"/>
<path d="M56.41 52.89H55.38V50.02H56.41V52.89Z" fill="#7BBCB9"/>
<path d="M48.54 52.89H47.51V50.02H48.54V52.89Z" fill="#7BBCB9"/>
<path d="M24.9 50.02H23.87V52.88H24.9V50.02Z" fill="#7BBCB9"/>
<path d="M56.41 47.16H55.38V44.29H56.41V47.16Z" fill="#7BBCB9"/>
<path d="M48.54 47.16H47.51V44.29H48.54V47.16Z" fill="#7BBCB9"/>
<path d="M40.66 44.29H39.63V47.15H40.66V44.29Z" fill="#7BBCB9"/>
<path d="M32.78 44.29H31.75V47.15H32.78V44.29Z" fill="#7BBCB9"/>
<path d="M24.9 44.29H23.87V47.15H24.9V44.29Z" fill="#7BBCB9"/>
<path d="M56.41 41.4301H55.38V38.5701H56.41V41.4301Z" fill="#7BBCB9"/>
<path d="M48.54 41.4301H47.51V38.5701H48.54V41.4301Z" fill="#7BBCB9"/>
<path d="M40.66 38.5701H39.63V41.4301H40.66V38.5701Z" fill="#7BBCB9"/>
<path d="M32.78 38.5701H31.75V41.4301H32.78V38.5701Z" fill="#7BBCB9"/>
<path d="M24.9 38.5701H23.87V41.4301H24.9V38.5701Z" fill="#7BBCB9"/>
<path d="M56.41 35.7001H55.38V32.8401H56.41V35.7001Z" fill="#7BBCB9"/>
<path d="M48.54 35.7001H47.51V32.8401H48.54V35.7001Z" fill="#7BBCB9"/>
<path d="M40.66 32.8401H39.63V35.7001H40.66V32.8401Z" fill="#7BBCB9"/>
<path d="M32.78 32.8401H31.75V35.7001H32.78V32.8401Z" fill="#7BBCB9"/>
<path d="M24.9 32.8401H23.87V35.7001H24.9V32.8401Z" fill="#7BBCB9"/>
<path d="M56.41 26.39H55.38V24.04H53.03V23.01H55.38V20.66H56.41V23.01H58.76V24.04H56.41V26.39Z" fill="#7BBCB9"/>
</svg>
