<svg xmlns="http://www.w3.org/2000/svg">
<path d="M32.48 26.64C35.7 26.64 38.3 24.03 38.3 20.82C38.3 17.61 35.7 15 32.48 15C29.26 15 26.66 17.61 26.66 20.82C26.66 24.03 29.27 26.64 32.48 26.64Z" fill="#CEE6E5"/>
<path d="M24.5 35.28C24.73 35 24.97 34.74 25.2 34.5V60.12C25.2 61.67 26.41 62.94 27.95 63.03C29.49 63.12 30.83 61.98 31 60.45L32.17 49.94H32.78L33.95 60.45C34.12 61.99 35.46 63.12 37 63.03C38.54 62.94 39.75 61.67 39.75 60.12V40.27C39.97 39.11 40.79 37.43 42.07 35.86C43.22 37.28 44 38.78 44.3 39.91C44.27 42.31 42.34 51.31 41.54 54.91C41.36 55.73 41.91 56.53 42.74 56.65C48.11 57.39 52.76 57.39 58.09 56.71C59.09 56.58 59.67 55.48 59.3 54.55C58.23 51.77 56.48 45.98 56.48 37.83V33.57C57.05 34.01 57.64 34.58 58.24 35.29C59.78 37.13 60.73 39.25 60.86 40.56C60.97 41.76 62.04 42.64 63.24 42.53C64.44 42.42 65.32 41.35 65.21 40.15C64.97 37.65 63.46 34.73 61.6 32.5C59.79 30.33 57.06 28.11 54 28.11H47.26C45.39 28.11 43.62 28.86 42.08 29.93C40.54 28.86 38.77 28.11 36.91 28.11H28.74C25.68 28.11 22.95 30.33 21.14 32.5C19.28 34.73 17.77 37.65 17.53 40.15C17.42 41.35 18.3 42.42 19.5 42.53C20.7 42.64 21.77 41.76 21.88 40.56C22.01 39.25 22.96 37.14 24.5 35.29V35.28Z" fill="#CEE6E5"/>
<path d="M15.02 46.29C15.02 44.28 16.65 42.65 18.66 42.65C20.67 42.65 22.3 44.28 22.3 46.29V61.57C22.3 62.37 21.65 63.03 20.84 63.03C20.03 63.03 19.38 62.38 19.38 61.57V46.29C19.38 45.89 19.05 45.56 18.65 45.56C18.25 45.56 17.92 45.89 17.92 46.29V47.76C17.92 48.56 17.27 49.22 16.46 49.22C15.65 49.22 15 48.57 15 47.76V46.29H15.02Z" fill="#7BBCB9"/>
<path d="M50.68 26.64C53.9 26.64 56.5 24.03 56.5 20.82C56.5 17.61 53.89 15 50.68 15C47.47 15 44.86 17.61 44.86 20.82C44.86 24.03 47.47 26.64 50.68 26.64Z" fill="#CEE6E5"/>
<path d="M43.4 62.14V58.89C45.22 59.12 46.93 59.26 48.62 59.3L47.69 62.72C47.4 63.78 46.38 64.45 45.29 64.31C44.21 64.16 43.4 63.24 43.4 62.15V62.14Z" fill="#7BBCB9"/>
<path d="M53.66 62.71L52.71 59.22C54.39 59.12 56.11 58.93 57.95 58.66V62.14C57.95 63.23 57.14 64.16 56.06 64.3C54.98 64.45 53.95 63.77 53.66 62.71Z" fill="#7BBCB9"/>
</svg>
