<svg xmlns="http://www.w3.org/2000/svg">
<path fill-rule="evenodd" clip-rule="evenodd" d="M18.9037 27.8312C18.1437 28.5912 17.9337 29.4912 18.3737 30.2612C18.9037 31.2012 19.5037 32.0312 20.0637 32.7112C19.5137 32.7912 19.0237 33.0312 18.6537 33.4312C18.2537 33.8712 18.0337 34.4612 17.9937 35.1112C17.2437 34.2412 16.4037 33.1212 15.6437 31.8012C14.2737 29.3912 15.3137 26.9912 16.6837 25.6112C17.3837 24.9212 18.2637 24.3712 19.2037 24.1312C20.1437 23.8912 21.3237 23.9312 22.2637 24.7612C23.9037 26.2012 24.6537 26.3312 25.0637 26.3712C25.1337 26.3712 25.2237 26.3712 25.3337 26.3812C25.9137 26.3812 27.0137 26.4112 28.1437 27.2112L26.3337 29.7712C26.0337 29.5612 25.9737 29.5612 25.6137 29.5412C25.4337 29.5412 25.1637 29.5312 24.7537 29.4912C23.5137 29.3712 22.1637 28.8612 20.2037 27.1412C20.1737 27.1412 20.0937 27.1412 19.9637 27.1712C19.6637 27.2512 19.2637 27.4712 18.8937 27.8412L18.9037 27.8312Z" fill="#CEE6E5"/>
<path fill-rule="evenodd" clip-rule="evenodd" d="M26.4236 35.8213C28.4936 37.7813 29.0636 40.4613 27.7136 41.8013C26.3536 43.1413 23.5836 42.6513 21.5236 40.6913C19.4536 38.7313 18.8836 36.0513 20.2336 34.7113C21.5936 33.3713 24.3636 33.8613 26.4236 35.8213Z" fill="#7BBCB9"/>
<path fill-rule="evenodd" clip-rule="evenodd" d="M60.5237 27.7912C61.2237 28.5412 61.4537 29.4812 61.0137 30.3012C60.5237 31.2212 59.9837 32.0312 59.4737 32.7012C60.0237 32.7712 60.5037 33.0112 60.8637 33.4312C61.2637 33.8912 61.4637 34.5112 61.4837 35.2112C62.2137 34.3212 63.0437 33.1612 63.7837 31.7712C65.0337 29.4012 64.1037 27.0412 62.8137 25.6512C62.1637 24.9512 61.3237 24.3812 60.4037 24.1312C59.4737 23.8812 58.3037 23.9312 57.3837 24.7912C55.8537 26.2312 55.1737 26.3312 54.8537 26.3612C54.7937 26.3612 54.7237 26.3612 54.6237 26.3612C54.0937 26.3612 52.9937 26.3812 51.8837 27.2212L53.7737 29.7212C54.0237 29.5312 54.0337 29.5312 54.3237 29.5312C54.4837 29.5312 54.7437 29.5212 55.1637 29.4712C56.3737 29.3512 57.6437 28.8212 59.4637 27.1212C59.4837 27.1212 59.5237 27.1212 59.5637 27.1412C59.8037 27.2112 60.1637 27.4112 60.5037 27.7712L60.5237 27.7912Z" fill="#CEE6E5"/>
<path fill-rule="evenodd" clip-rule="evenodd" d="M52.8637 35.8213C50.7937 37.7813 50.2237 40.4613 51.5737 41.8013C52.9337 43.1413 55.7037 42.6513 57.7637 40.6913C59.8337 38.7313 60.4037 36.0513 59.0537 34.7113C57.6937 33.3713 54.9237 33.8613 52.8637 35.8213Z" fill="#7BBCB9"/>
<path fill-rule="evenodd" clip-rule="evenodd" d="M33.8837 37.4412C29.6437 37.4412 23.2737 24.8312 40.2537 24.8312C57.2337 24.8312 50.1637 37.4412 45.9137 37.4412C43.8937 37.4412 43.7337 42.0512 43.5737 46.8712C43.4537 50.4512 43.3237 54.1512 42.4337 56.1812C42.1537 56.8212 41.6737 56.6312 41.1437 56.4112C40.8537 56.3012 40.5537 56.1812 40.2537 56.1812C39.9537 56.1812 39.6537 56.2912 39.3237 56.4012C38.6837 56.6212 38.0337 56.8312 37.7237 56.1812C36.7437 54.1312 36.5537 50.3612 36.3637 46.7412C36.1137 41.9612 35.8837 37.4312 33.8737 37.4312L33.8837 37.4412Z" fill="#CEE6E5"/>
</svg>
