<svg xmlns="http://www.w3.org/2000/svg">
<path fill-rule="evenodd" clip-rule="evenodd" d="M59.32 49.84H59.41C62.35 49.84 64.74 47.44 64.74 44.47C64.74 42.46 63.65 40.71 62.03 39.79V22.77C62.03 21.27 60.82 20.06 59.32 20.06H51.2C50.45 20.06 49.85 19.45 49.85 18.71V16H47.14V18.71C47.14 20.48 48.27 21.98 49.85 22.54V24.12H48.5C47.75 24.12 47.15 24.73 47.15 25.47V33.59C47.15 34.34 47.76 34.94 48.5 34.94H53.91C54.66 34.94 55.26 34.33 55.26 33.59V25.47C55.26 24.72 54.65 24.12 53.91 24.12H52.56V22.77H59.33V39.1H35.11C35 39.1 34.89 39.06 34.82 38.98L34.32 38.48L34.82 37.98C36.81 35.99 36.82 32.76 34.82 30.76L32.38 28.32C30.39 26.33 27.16 26.33 25.16 28.32L24.21 29.27C22.4 28.75 20.37 29.22 18.94 30.65C16.83 32.77 16.83 36.21 18.94 38.33L20.07 39.47V53.9H16V56.61H64.73V53.9H59.32V49.84ZM56.61 53.9H22.77V42.2L29.91 49.39C30.2 49.68 30.58 49.84 30.99 49.84H56.61V53.9Z" fill="#CEE6E5"/>
<path fill-rule="evenodd" clip-rule="evenodd" d="M26.59 30.71L32.4 36.56L32.89 36.07C33.83 35.13 33.83 33.62 32.89 32.68L30.45 30.24C29.51 29.3 28 29.3 27.06 30.24L26.59 30.71Z" fill="#7BBCB9"/>
<path d="M24.65 63.79C26.8592 63.79 28.65 61.9992 28.65 59.79C28.65 57.5809 26.8592 55.79 24.65 55.79C22.4409 55.79 20.65 57.5809 20.65 59.79C20.65 61.9992 22.4409 63.79 24.65 63.79Z" fill="#7BBCB9"/>
<path d="M56.61 63.79C58.8191 63.79 60.61 61.9992 60.61 59.79C60.61 57.5809 58.8191 55.79 56.61 55.79C54.4008 55.79 52.61 57.5809 52.61 59.79C52.61 61.9992 54.4008 63.79 56.61 63.79Z" fill="#7BBCB9"/>
<path d="M53.5 23.92H49.02C47.8989 23.92 46.99 24.8289 46.99 25.95V32.97C46.99 34.0912 47.8989 35 49.02 35H53.5C54.6211 35 55.53 34.0912 55.53 32.97V25.95C55.53 24.8289 54.6211 23.92 53.5 23.92Z" fill="#7BBCB9"/>
</svg>
