<svg xmlns="http://www.w3.org/2000/svg">
<path d="M40.9 16L16 27.04V63.21H23.79V32.06H57.11V63.21H64.9V26.1L40.9 16Z" fill="#CEE6E5"/>
<path d="M38.28 53H29.86C29.3629 53 28.96 53.4029 28.96 53.9V62.32C28.96 62.8171 29.3629 63.22 29.86 63.22H38.28C38.777 63.22 39.18 62.8171 39.18 62.32V53.9C39.18 53.4029 38.777 53 38.28 53Z" fill="#7BBCB9"/>
<path d="M50.36 53H41.94C41.443 53 41.04 53.4029 41.04 53.9V62.32C41.04 62.8171 41.443 63.22 41.94 63.22H50.36C50.8571 63.22 51.26 62.8171 51.26 62.32V53.9C51.26 53.4029 50.8571 53 50.36 53Z" fill="#7BBCB9"/>
<path d="M44.36 41H35.94C35.443 41 35.04 41.4029 35.04 41.9V50.32C35.04 50.8171 35.443 51.22 35.94 51.22H44.36C44.8571 51.22 45.26 50.8171 45.26 50.32V41.9C45.26 41.4029 44.8571 41 44.36 41Z" fill="#7BBCB9"/>
</svg>
