<svg xmlns="http://www.w3.org/2000/svg">
<path d="M53.61 61.15C51.01 61.15 48.89 59.03 48.89 56.43V26.04H44.28V56.43C44.28 59.03 42.16 61.15 39.56 61.15C36.96 61.15 34.84 59.03 34.84 56.43V26.04H30.23V56.43C30.23 59.03 28.11 61.15 25.51 61.15C22.91 61.15 20.79 59.03 20.79 56.43V26.04H18.51C18.23 26.04 18 25.81 18 25.53C18 25.25 18.23 25.02 18.51 25.02H20.81V19.02H19.91C19.63 19.02 19.4 18.79 19.4 18.51C19.4 18.23 19.63 18 19.91 18H31.14C31.42 18 31.65 18.23 31.65 18.51C31.65 18.79 31.42 19.02 31.14 19.02H30.24V25.03H34.85V19.02H33.95C33.67 19.02 33.44 18.79 33.44 18.51C33.44 18.23 33.67 18 33.95 18H45.18C45.46 18 45.69 18.23 45.69 18.51C45.69 18.79 45.46 19.02 45.18 19.02H44.28V25.03H48.88V19.02H47.98C47.7 19.02 47.47 18.79 47.47 18.51C47.47 18.23 47.7 18 47.98 18H59.21C59.49 18 59.72 18.23 59.72 18.51C59.72 18.79 59.49 19.02 59.21 19.02H58.31V25.03H60.61C60.89 25.03 61.12 25.26 61.12 25.54C61.12 25.82 60.89 26.05 60.61 26.05H58.31V56.44C58.31 59.04 56.19 61.16 53.59 61.16L53.61 61.15Z" fill="#CEE6E5"/>
<path d="M49.9 35.87V56.43C49.9 58.47 51.56 60.14 53.61 60.14C55.66 60.14 57.32 58.48 57.32 56.43V35.87H49.91H49.9Z" fill="#7BBCB9"/>
<path d="M35.86 49.91V56.43C35.86 58.47 37.52 60.14 39.57 60.14C41.62 60.14 43.28 58.48 43.28 56.43V49.91H35.87H35.86Z" fill="#7BBCB9"/>
<path d="M21.8199 41.49V56.43C21.8199 58.47 23.4799 60.14 25.5299 60.14C27.5799 60.14 29.2399 58.48 29.2399 56.43V41.49H21.8199Z" fill="#7BBCB9"/>
<path d="M43.27 26.04H35.86V48.9H43.27V26.04Z" fill="#CEE6E5"/>
<path d="M29.2299 26.04H21.8199V40.47H29.2299V26.04Z" fill="#CEE6E5"/>
<path d="M57.31 26.04H49.9V34.86H57.31V26.04Z" fill="#CEE6E5"/>
<path d="M57.31 19.02H49.9V25.03H57.31V19.02Z" fill="#CEE6E5"/>
<path d="M43.27 19.02H35.86V25.03H43.27V19.02Z" fill="#CEE6E5"/>
<path d="M29.2299 19.02H21.8199V25.03H29.2299V19.02Z" fill="#CEE6E5"/>
</svg>
