<svg xmlns="http://www.w3.org/2000/svg">
<path d="M49.5785 55.1964H53.2385C54.3885 53.0864 54.9985 50.6964 54.9985 48.2664C54.9985 43.1564 52.3085 38.4564 47.9385 35.8464C47.0485 37.3364 45.4185 38.3264 43.5585 38.3264C42.6985 38.3264 41.8885 38.1164 41.1685 37.7364L36.1485 46.4364C35.9885 46.7264 35.6285 46.8164 35.3385 46.6564L33.2485 45.4464L32.3385 47.0264L34.4285 48.2364C34.5685 48.3164 34.6585 48.4464 34.6985 48.5964C34.7385 48.7464 34.7185 48.9064 34.6385 49.0464L33.1385 51.6464C32.9785 51.9264 32.6185 52.0264 32.3285 51.8664L24.5185 47.3564C24.2385 47.1964 24.1385 46.8364 24.2985 46.5464L25.7985 43.9464C25.8785 43.8064 26.0085 43.7064 26.1585 43.6664C26.3085 43.6264 26.4685 43.6464 26.6085 43.7264L28.6985 44.9364L29.6085 43.3564L27.5185 42.1464C27.3785 42.0664 27.2885 41.9364 27.2485 41.7864C27.2085 41.6364 27.2285 41.4764 27.3085 41.3364L42.3585 15.2964C42.5185 15.0164 42.8885 14.9164 43.1685 15.0764L50.9785 19.5864C51.1185 19.6664 51.2185 19.7964 51.2585 19.9464C51.2985 20.0964 51.2785 20.2564 51.1985 20.3964L46.2785 28.9064C47.7185 29.8064 48.6685 31.4064 48.6685 33.2264C48.6685 33.7564 48.5885 34.2764 48.4285 34.7664C53.2185 37.5664 56.1785 42.6964 56.1785 48.2664C56.1785 50.6764 55.6185 53.0464 54.5685 55.1964H58.5985" fill="#CEE6E5"/>
<path d="M25.6285 46.6264L32.4185 50.5464L33.3285 48.9664L28.6285 46.2564C28.6285 46.2564 28.6085 46.2564 28.6085 46.2464L26.5385 45.0464L25.6285 46.6264Z" fill="#7BBCB9"/>
<path d="M30.5385 45.9864L31.3185 46.4364L32.2385 44.8564L30.6585 43.9364L29.7385 45.5264L30.5385 45.9864Z" fill="#CEE6E5"/>
<path d="M41.3986 36.4964C42.0186 36.9064 42.7686 37.1464 43.5686 37.1464C45.1586 37.1464 46.5386 36.1864 47.1486 34.8264C47.1486 34.8064 47.1686 34.7864 47.1786 34.7664C47.3786 34.2964 47.4886 33.7764 47.4886 33.2264C47.4886 31.0664 45.7286 29.3064 43.5686 29.3064C41.4086 29.3064 39.6486 31.0664 39.6486 33.2264C39.6486 34.5164 40.2686 35.6564 41.2286 36.3664C41.2386 36.3664 41.2586 36.3764 41.2786 36.3864C41.3286 36.4164 41.3686 36.4464 41.4086 36.4864L41.3986 36.4964Z" fill="#7BBCB9"/>
<path d="M53.6585 55.1963H57.6885C58.0185 55.1963 58.2785 55.4563 58.2785 55.7863V64.8063C58.2785 65.1363 58.0185 65.3963 57.6885 65.3963H21.5985C21.3585 65.3963 21.1485 65.2563 21.0485 65.0263C20.9485 64.7963 21.0085 64.5563 21.1785 64.3863L27.1985 58.3763C27.3085 58.2663 27.4585 58.2063 27.6185 58.2063H48.0785V55.7863C48.0785 55.4563 48.3385 55.1963 48.6685 55.1963H52.3285" fill="#CEE6E5"/>
</svg>
