<svg xmlns="http://www.w3.org/2000/svg">
<path d="M47.9336 71.8424C61.1304 71.8424 71.8286 61.1442 71.8286 47.9474C71.8286 34.7505 61.1304 24.0524 47.9336 24.0524C34.7367 24.0524 24.0386 34.7505 24.0386 47.9474C24.0386 61.1442 34.7367 71.8424 47.9336 71.8424Z" fill="#7BBCB9"/>
<path fill-rule="evenodd" clip-rule="evenodd" d="M30.9997 64.8921C40.3504 74.2428 55.5166 74.2428 64.8782 64.8921C74.2289 55.5414 74.2289 40.3752 64.8782 31.0136C56.1604 22.3067 42.4126 21.7066 33.0073 29.2133C38.6701 28.6241 42.478 35.738 38.0809 40.1352C35.9315 42.2846 37.459 45.9507 40.4922 45.9507H41.7688C44.9112 45.9507 47.6607 48.0565 48.4681 51.1007L51.0104 60.6259C52.4725 59.9931 53.6836 59.1857 54.6547 58.3346H54.5783C53.1271 58.4547 51.796 57.4945 51.4468 56.087L49.4719 48.1874C49.0682 46.5835 50.0502 44.9578 51.6541 44.5541C53.258 44.1504 54.8838 45.1324 55.2875 46.7363L56.6514 52.1918L60.5575 51.8863C61.5722 51.8099 62.5651 52.2572 63.1761 53.0756C63.7871 53.8939 63.9399 54.9631 63.5907 55.9233C62.336 59.2621 57.6333 66.5833 47.2898 67.729C45.795 67.8926 44.4202 66.9325 44.0492 65.4813L42.7944 60.4841L37.7972 61.7389C36.1933 62.1426 34.5676 61.1606 34.1639 59.5567C33.7602 57.9528 34.7422 56.327 36.3461 55.9233L44.2456 53.9484C44.9003 53.7848 45.5767 53.8502 46.1877 54.1121L45.5986 51.8863C45.1403 50.1623 43.58 48.9621 41.7906 48.9621H40.5141C34.8076 48.9621 31.949 42.0664 35.986 38.0293C38.5173 35.498 35.9424 31.2755 32.5272 32.3775L28.7957 33.5777C21.7363 42.9611 22.4673 56.3598 31.0106 64.903L30.9997 64.8921Z" fill="#CEE6E5"/>
<path fill-rule="evenodd" clip-rule="evenodd" d="M66.5912 49.9113C64.409 52.0935 60.8739 52.0935 58.6917 49.9113C56.5095 47.7291 56.5095 44.194 58.6917 42.0118C60.8739 39.8296 64.409 39.8296 66.5912 42.0118C68.7734 44.194 68.7734 47.7291 66.5912 49.9113Z" fill="#7BBCB9"/>
</svg>
