<svg xmlns="http://www.w3.org/2000/svg">
<path d="M41.765 42.7425C44.125 41.3625 45.605 38.8325 45.605 36.0625C45.605 31.7925 42.135 28.3225 37.865 28.3225C33.595 28.3225 30.125 31.7925 30.125 36.0625C30.125 38.8225 31.605 41.3625 33.965 42.7425C28.215 44.4725 24.125 49.7125 24.125 55.4925H51.615C51.615 49.7125 47.525 44.4725 41.765 42.7425Z" fill="#7BBCB9"/>
<path d="M20.035 20.0425C10.655 29.4225 10.655 44.6425 20.035 54.0225C28.525 62.5125 41.795 63.3225 51.195 56.4425L61.035 66.2825C62.485 67.7325 64.825 67.7325 66.275 66.2825C67.725 64.8325 67.725 62.4925 66.275 61.0425L56.435 51.2025C63.315 41.8025 62.505 28.5425 54.015 20.0425C44.625 10.6525 29.415 10.6525 20.035 20.0425ZM50.155 50.1625C43.045 57.2725 31.515 57.2725 24.395 50.1625C17.275 43.0525 17.285 31.5225 24.395 24.4025C31.505 17.2825 43.035 17.2925 50.155 24.4025C57.265 31.5125 57.265 43.0425 50.155 50.1625Z" fill="#CEE6E5"/>
</svg>
