<svg xmlns="http://www.w3.org/2000/svg">
<path d="M63.28 42.47C63.28 44.19 58.23 46.6 50 46.6C47.99 46.6 46.07 46.45 44.28 46.16C44.31 46 44.34 45.84 44.34 45.67V40.97C46.13 41.24 48.02 41.39 49.99 41.39C55.14 41.39 60.51 40.35 63.27 38.39V42.48L63.28 42.47Z" fill="#CEE6E5"/>
<path d="M42.45 45.67C42.45 47.39 37.42 49.79 29.22 49.79C21.02 49.79 16 47.39 16 45.67V41.6C18.75 43.56 24.1 44.59 29.23 44.59C34.36 44.59 39.7 43.56 42.46 41.6V45.67H42.45Z" fill="#7BBCB9"/>
<path d="M16 48.69C18.76 50.65 24.1 51.68 29.23 51.68C34.36 51.68 39.7 50.64 42.46 48.69V52.76C42.46 54.48 37.43 56.88 29.23 56.88C21.03 56.88 16 54.48 16 52.76V48.69Z" fill="#7BBCB9"/>
<path d="M63.28 28.25C63.28 29.97 58.23 32.38 50 32.38C41.77 32.38 36.72 29.97 36.72 28.25V24.16C39.48 26.12 44.85 27.16 50 27.16C55.15 27.16 60.52 26.12 63.28 24.16V28.25Z" fill="#CEE6E5"/>
<path d="M50 17C58.23 17 63.28 19.41 63.28 21.13C63.28 22.85 58.23 25.26 50 25.26C41.77 25.26 36.72 22.85 36.72 21.13C36.72 19.41 41.77 17 50 17Z" fill="#CEE6E5"/>
<path d="M36.73 31.26C39.49 33.23 44.86 34.27 50.01 34.27C55.16 34.27 60.53 33.23 63.29 31.26V35.35C63.29 37.07 58.24 39.48 50.01 39.48C48.04 39.48 46.08 39.32 44.3 39.03C44.33 38.88 44.36 38.73 44.36 38.57C44.36 36.03 41.06 34.26 36.74 33.33V31.26H36.73Z" fill="#CEE6E5"/>
<path d="M29.23 34.47C37.43 34.47 42.46 36.87 42.46 38.59C42.46 40.31 37.43 42.7 29.23 42.7C21.03 42.7 16 40.3 16 38.58C16 36.86 21.03 34.46 29.23 34.46V34.47Z" fill="#7BBCB9"/>
<path d="M29.23 63.96C21.04 63.96 16 61.56 16 59.84V55.77C18.75 57.73 24.1 58.76 29.23 58.76C34.36 58.76 39.7 57.72 42.46 55.77V59.84C42.46 61.56 37.43 63.96 29.23 63.96Z" fill="#7BBCB9"/>
<path d="M50 53.71C48 53.71 46.08 53.56 44.28 53.27C44.31 53.1 44.35 52.93 44.35 52.76V48.09C46.13 48.36 48.03 48.5 50 48.5C55.15 48.5 60.52 47.46 63.28 45.5V49.59C63.28 51.31 58.23 53.72 50 53.72V53.71Z" fill="#CEE6E5"/>
</svg>
