<svg xmlns="http://www.w3.org/2000/svg">
<path fill-rule="evenodd" clip-rule="evenodd" d="M26.079 48.601V62.68H48.601V48.601H62.68V26.079H48.601V12H26.079V26.079H12V48.601H26.079Z" fill="#CEE6E5"/>
<path fill-rule="evenodd" clip-rule="evenodd" d="M40.857 26.7891H37.1514C36.9517 26.7891 36.8296 26.8224 36.7631 26.8557C35.587 27.4326 34.8548 28.4422 34.3999 29.6404C34.3112 29.8623 34.2446 30.0842 34.178 30.3061H31.2823C31.3933 29.7624 31.5486 29.1966 31.7594 28.6419C32.3807 26.9888 33.5124 25.3024 35.5205 24.3261C36.0752 24.0598 36.6521 23.9711 37.1403 23.9711H40.8459C41.6225 23.9711 42.2549 24.6035 42.2549 25.3801C42.2549 26.1567 41.6225 26.7891 40.8459 26.7891H40.857Z" fill="#7BBCB9"/>
<path fill-rule="evenodd" clip-rule="evenodd" d="M28.897 31.7151C28.1204 31.7151 27.4769 32.3586 27.6766 33.1019C28.4865 35.9976 31.7927 38.2609 35.931 38.6825V40.8792C34.9547 40.9014 33.934 40.9791 33.0686 41.2342C32.3918 41.4339 31.6818 41.7668 31.1381 42.377C30.5612 43.0205 30.295 43.8304 30.295 44.7401C30.295 45.6499 30.5612 46.4598 31.1381 47.1033C31.6818 47.7135 32.4029 48.0574 33.0686 48.2571C33.5235 48.3902 34.0116 48.4679 34.522 48.5234V45.6942C34.2779 45.661 34.056 45.6166 33.8563 45.5611C33.4791 45.4502 33.3127 45.3281 33.235 45.2505C33.1906 45.195 33.1019 45.084 33.1019 44.7623C33.1019 44.4406 33.1906 44.3296 33.235 44.2741C33.3016 44.1965 33.468 44.0744 33.8563 43.9635C34.4 43.8082 35.0878 43.7416 35.931 43.7305V45.8163V48.6343V51.4634H31.704V54.2814H42.965V51.4634H38.7379V43.675C40.2912 43.553 41.5449 43.2091 42.4879 42.5989C43.8192 41.7446 44.3629 40.4687 44.3629 39.1041C44.3629 38.3718 44.1965 37.6618 43.8414 37.0294C45.428 36.0309 46.5596 34.6773 46.9812 33.1352C47.192 32.3919 46.5485 31.7484 45.7608 31.7484H28.8638L28.897 31.7151Z" fill="#7BBCB9"/>
<path fill-rule="evenodd" clip-rule="evenodd" d="M38.749 40.8014C39.8918 40.6905 40.5796 40.4464 40.979 40.1912C41.4117 39.9139 41.567 39.5921 41.567 39.0707C41.567 38.6713 41.4783 38.405 41.2453 38.1831C40.4576 38.4272 39.6255 38.5936 38.749 38.6824V40.8014Z" fill="#CEE6E5"/>
</svg>
