<svg xmlns="http://www.w3.org/2000/svg">
<path d="M53.9748 60.797H24.7617C24.4667 60.797 24.2373 60.5566 24.2373 60.2726V23.7617C24.2373 23.4667 24.4777 23.2373 24.7617 23.2373H35.916V16.4639C35.916 16.1689 36.1563 15.9395 36.4404 15.9395H42.2852C42.5801 15.9395 42.8096 16.1799 42.8096 16.4639V23.2373H53.9638C54.2588 23.2373 54.4882 23.4777 54.4882 23.7617V60.2726C54.4882 60.5675 54.2479 60.797 53.9638 60.797H53.9748Z" fill="#CEE6E5"/>
<path d="M40.57 55.3674H30.3444V56.4162H40.57V55.3674Z" fill="#7BBCB9"/>
<path d="M47.8678 52.4504H30.3444V53.4992H47.8678V52.4504Z" fill="#7BBCB9"/>
<path d="M42.2415 40.0397C43.9786 39.0237 45.0711 37.1446 45.0711 35.1126C45.0711 31.9663 42.5037 29.3989 39.3574 29.3989C36.211 29.3989 33.6437 31.9663 33.6437 35.1126C33.6437 37.1556 34.7362 39.0237 36.4841 40.0397C32.2344 41.3179 29.2191 45.1853 29.2191 49.457H49.5175C49.5175 45.1853 46.4913 41.3179 42.2525 40.0397H42.2415Z" fill="#7BBCB9"/>
<path d="M54.4991 65.4619H58.596V61.0811C58.596 60.9281 58.7161 60.797 58.88 60.797H63.2609V56.7002H58.88C58.7271 56.7002 58.596 56.58 58.596 56.4161V52.0353H54.4991V56.4161C54.4991 56.5691 54.379 56.7002 54.2151 56.7002H49.8342V60.797H54.2151C54.368 60.797 54.4991 60.9172 54.4991 61.0811V65.4619Z" fill="#7BBCB9"/>
</svg>
