<svg xmlns="http://www.w3.org/2000/svg">
<path fill-rule="evenodd" clip-rule="evenodd" d="M34.824 27.412C35.4828 26.9394 35.7025 26.0025 35.6083 25.059C35.7025 21.1334 32.5024 18 28.5493 18C24.5963 18 21.3962 21.1334 21.4903 25.059C21.3962 27.861 23.1374 30.3186 25.412 31.3337C20.1099 32.6994 16 37.5377 16 43.0987V54.8637H37.9613V27.412H34.824Z" fill="#CEE6E5"/>
<path fill-rule="evenodd" clip-rule="evenodd" d="M63.06 54.8637V43.0987C63.06 37.5377 58.9501 32.684 53.648 31.3337C55.9225 30.3186 57.6638 27.861 57.5696 25.059C57.6638 21.1334 54.4637 18 50.5106 18C46.5576 18 43.3575 21.1334 43.4516 25.059C43.3575 26.0025 43.5614 26.9394 44.236 27.412H41.0986V54.8637H63.06Z" fill="#CEE6E5"/>
<path fill-rule="evenodd" clip-rule="evenodd" d="M28.5493 61.1383V49.6184C28.5493 43.8124 32.6592 38.9587 38.1966 37.6838C35.6867 36.5933 33.9455 34.1357 33.9455 31.2788C33.9455 27.4081 37.1456 24.2747 41.0987 24.2747C45.0517 24.2747 48.2518 27.4081 48.2518 31.2788C48.2518 34.1357 46.5106 36.5933 44.0007 37.6838C49.5381 38.974 53.648 43.8124 53.648 49.6184V61.1383" fill="#7BBCB9"/>
</svg>
