<svg xmlns="http://www.w3.org/2000/svg">
<path d="M58.87 20H48.87C48.257 20 47.76 20.497 47.76 21.11V31.11C47.76 31.723 48.257 32.22 48.87 32.22H58.87C59.483 32.22 59.98 31.723 59.98 31.11V21.11C59.98 20.497 59.483 20 58.87 20Z" fill="#CEE6E5"/>
<path d="M31.11 47.76H21.11C20.497 47.76 20 48.257 20 48.87V58.87C20 59.483 20.497 59.98 21.11 59.98H31.11C31.723 59.98 32.22 59.483 32.22 58.87V48.87C32.22 48.257 31.723 47.76 31.11 47.76Z" fill="#CEE6E5"/>
<path d="M36.4259 41.985L32.8904 45.5205L34.4602 47.0903L37.9957 43.5547L36.4259 41.985Z" fill="#7BBCB9"/>
<path fill-rule="evenodd" clip-rule="evenodd" d="M37.88 35.84V33.62H46.36V42.09H44.14V37.41L39.72 41.83L38.15 40.26L42.57 35.84H37.88Z" fill="#7BBCB9"/>
</svg>
