<svg xmlns="http://www.w3.org/2000/svg">
<path fill-rule="evenodd" clip-rule="evenodd" d="M52.3 23.02C52.3 20.8 54.1 19 56.32 19C58.54 19 60.34 20.8 60.34 23.02V29.91C60.34 31.73 59.13 33.26 57.48 33.76C57.48 34.97 57.51 36.14 57.52 37.28C57.58 41.55 57.63 45.26 57.31 48.31C56.85 52.68 55.6 56.11 52.19 58.12C48.32 60.4 42.77 61.09 38.21 60.51C35.92 60.22 33.78 59.6 32.18 58.62C31.02 57.91 30.05 56.94 29.6 55.72C27.21 55.61 24.82 55.18 22.94 54.4C20.91 53.56 19 52.1 19 49.82V27.18C19 27.18 19 27.09 19 27.04C19 23.87 24.14 21.3 30.48 21.3C36.82 21.3 41.96 23.87 41.96 27.04C41.96 27.09 41.96 27.13 41.96 27.18V34.01C42.11 34.03 42.25 34.06 42.4 34.08C42.73 34.15 43.06 34.23 43.38 34.34C46.56 35.41 48.86 38.42 48.86 41.96C48.86 46.01 45.86 49.36 41.97 49.92C41.92 52.23 40.07 53.7 38.03 54.53C36.37 55.21 34.32 55.59 32.23 55.7C32.51 56.03 32.89 56.35 33.38 56.65C34.61 57.4 36.41 57.95 38.5 58.22C42.71 58.75 47.72 58.08 51.02 56.13C53.48 54.68 54.59 52.17 55.02 48.06C55.33 45.15 55.28 41.66 55.22 37.47C55.2 36.29 55.19 35.06 55.18 33.76C53.52 33.27 52.3 31.73 52.3 29.9V23.01V23.02Z" fill="#CEE6E5"/>
<path fill-rule="evenodd" clip-rule="evenodd" d="M37.5801 29.04C39.4101 28.12 39.6701 27.28 39.6701 27.03C39.6701 26.78 39.4101 25.94 37.5801 25.02C35.8801 24.17 33.3801 23.58 30.4901 23.58C27.6001 23.58 25.0901 24.17 23.4001 25.02C21.5701 25.94 21.3101 26.78 21.3101 27.03C21.3101 27.28 21.5701 28.12 23.4001 29.04C25.1001 29.89 27.6001 30.48 30.4901 30.48C33.3801 30.48 35.8901 29.89 37.5801 29.04Z" fill="#7BBCB9"/>
<path fill-rule="evenodd" clip-rule="evenodd" d="M30.4801 32.78C34.2401 32.78 37.5701 31.88 39.6701 30.48V34.01C39.5201 34.03 39.3801 34.06 39.2301 34.08C38.9001 34.15 38.5701 34.23 38.2501 34.34C35.0701 35.41 32.7701 38.42 32.7701 41.96C32.7701 46.01 35.7601 49.36 39.6601 49.92C39.6101 50.81 38.8901 51.7 37.1501 52.4C35.4001 53.11 32.9801 53.47 30.4901 53.44C30.1401 53.44 29.7801 53.42 29.4301 53.4V32.76C29.7701 32.78 30.1201 32.78 30.4701 32.78H30.4801Z" fill="#7BBCB9"/>
<path fill-rule="evenodd" clip-rule="evenodd" d="M40.82 36.8L39.1 42.5401L40.82 44.84L42.54 42.5401L40.82 36.8Z" fill="#7BBCB9"/>
</svg>
