<svg xmlns="http://www.w3.org/2000/svg">
<path d="M20.75 41.32H23.85C26.3 38.05 29.8 35.55 33.67 34.29C30.5 32.29 28.52 28.79 28.52 24.99C28.53 18.93 33.47 14 39.53 14C45.59 14 50.53 18.93 50.53 25C50.53 28.8 48.55 32.3 45.38 34.3C49.26 35.56 52.77 38.06 55.22 41.33H58.32" fill="#CEE6E5"/>
<path d="M57.83 40.6799H21.24C20.5552 40.6799 20 41.2351 20 41.9199V64.5699C20 65.2548 20.5552 65.8099 21.24 65.8099H57.83C58.5148 65.8099 59.07 65.2548 59.07 64.5699V41.9199C59.07 41.2351 58.5148 40.6799 57.83 40.6799Z" fill="#7BBCB9"/>
<path d="M40.4 61.79H39.17V58.99H34.66C34.06 58.99 33.57 59.48 33.57 60.08V60.93H32.34V60.08C32.34 58.8 33.38 57.76 34.66 57.76H39.17V53.87H32.95C32.35 53.87 31.86 54.36 31.86 54.96V55.81H30.63V54.96C30.63 53.68 31.67 52.64 32.95 52.64H39.17V48.75H32.95C32.35 48.75 31.86 49.24 31.86 49.84V50.69H30.63V49.84C30.63 48.56 31.67 47.52 32.95 47.52H39.17V44.72H40.4V47.52H46.62C47.9 47.52 48.94 48.56 48.94 49.84V50.69H47.71V49.84C47.71 49.24 47.22 48.75 46.62 48.75H40.4V52.64H46.62C47.9 52.64 48.94 53.68 48.94 54.96V55.81H47.71V54.96C47.71 54.36 47.22 53.87 46.62 53.87H40.4V57.76H44.91C46.19 57.76 47.23 58.8 47.23 60.08V60.93H46V60.08C46 59.48 45.51 58.99 44.91 58.99H40.4V61.79Z" fill="#CEE6E5"/>
</svg>
