<?xml version="1.0" encoding="UTF-8" standalone="no"?>
<svg
   xmlns:dc="http://purl.org/dc/elements/1.1/"
   xmlns:cc="http://creativecommons.org/ns#"
   xmlns:rdf="http://www.w3.org/1999/02/22-rdf-syntax-ns#"
   xmlns:svg="http://www.w3.org/2000/svg"
   xmlns="http://www.w3.org/2000/svg"
   version="1.1"
   height="56"
   width="56"
   fill="#231f20"
   font-family="'Avenir 55 Roman'"
   id="svg2">
  <path
     d="M 15.713,15.789 C 18.92,12.583 23.35,10.6 28.243,10.6 c 4.882,0 9.301,1.974 12.504,5.165 L 40.76,3.965 C 37.01,2.034 32.752,0.942 28.243,0.942 c -4.511,0 -8.791,1.229 -12.544,3.162 z"
     fill="#f26522"
     id="path4" />
  <path
     d="m 40.76,40.829 c -3.205,3.206 -7.634,5.188 -12.528,5.188 -4.879,0 -9.3,-1.973 -12.505,-5.164 l -0.014,11.799 c 3.754,1.932 8.008,3.023 12.519,3.023 4.511,0 8.768,-1.091 12.519,-3.024 z"
     fill="#eea616"
     id="path6" />
  <path
     d="m 15.738,40.844 c -3.206,-3.206 -5.19,-7.634 -5.19,-12.528 0,-4.88 1.974,-9.3 5.165,-12.506 l -11.8,-0.012 c -1.931,3.752 -3.022,8.007 -3.022,12.518 0,4.512 1.091,8.768 3.024,12.52 z"
     fill="#5b57a6"
     id="path8" />
  <path
     d="m 40.753,15.764 c 3.207,3.205 5.19,7.636 5.19,12.53 0,4.881 -1.974,9.3 -5.166,12.503 l 11.801,0.014 C 54.51,37.06 55.6,32.803 55.6,28.294 c 0,-4.512 -1.09,-8.769 -3.024,-12.522 z"
     fill="#009384"
     id="path10" />
</svg>
