<svg width="130" height="86" xmlns="http://www.w3.org/2000/svg">
    <g fill="none" fill-rule="evenodd">
        <path d="M71.85 20c2.333 0 4.225 1.88 4.225 4.2 0 2.32-1.892 4.2-4.226 4.2h38.642c2.334 0 4.226 1.88 4.226 4.2 0 2.32-1.892 4.2-4.226 4.2h13.283c2.334 0 4.226 1.88 4.226 4.2 0 2.32-1.892 4.2-4.226 4.2h-11.472c-2.334 0-4.227 1.88-4.227 4.2 0 2.32 1.893 4.2 4.227 4.2h3.623c2.334 0 4.226 1.88 4.226 4.2 0 2.32-1.892 4.2-4.226 4.2H27.774c-2.335 0-4.227-1.88-4.227-4.2 0-2.32 1.892-4.2 4.227-4.2H4.226C1.892 53.6 0 51.72 0 49.4c0-2.32 1.892-4.2 4.226-4.2h24.151c2.335 0 4.227-1.88 4.227-4.2 0-2.32-1.892-4.2-4.227-4.2H13.283c-2.334 0-4.226-1.88-4.226-4.2 0-2.32 1.892-4.2 4.226-4.2h24.151c-2.334 0-4.226-1.88-4.226-4.2 0-2.32 1.892-4.2 4.226-4.2h34.415zM126 54a4 4 0 1 1 0 8 4 4 0 0 1 0-8z" fill="#F4F4F4"/>
        <path d="M84.1 67.27c2.047-.998 3.731-2.455 4.753-3.714m1.775-2.081h0a28.783 28.783 0 0 0 5.698-11.513 29.183 29.183 0 0 0-.801-16.319 28.964 28.964 0 0 0-3.53-6.976 29.401 29.401 0 0 0-3.058-3.733 29.266 29.266 0 0 0-5.45-4.437 28.968 28.968 0 0 0-6.616-3.082 29.197 29.197 0 0 0-15.803-.56 28.766 28.766 0 0 0-13.207 7.29 28.886 28.886 0 0 0-5.454 7.228 28.855 28.855 0 0 0-2.851 8.078 29.21 29.21 0 0 0-.352 8.734 29.04 29.04 0 0 0 8.012 17.04 29.089 29.089 0 0 0 9.875 6.718 29.186 29.186 0 0 0 13.805 2.062 28.869 28.869 0 0 0 11.301-3.48" stroke="#ACACAC" stroke-width="1.5" fill="#FFF" stroke-linecap="round"/>
        <path d="M59.021 19.439a23.46 23.46 0 0 0-8.227 5.164 23.75 23.75 0 0 0-1.703 1.827M46.877 29a30.21 30.21 0 0 0-2.182 3.498" stroke="#B6B6B7" stroke-width="1.5" fill="#FFF" stroke-linecap="round"/>
        <path d="M56.588 42.78a2.136 2.136 0 0 0-3.027.138 2.159 2.159 0 0 0 .137 3.04l10.085 9.254a2.99 2.99 0 0 0 4.238-.193c.047-.052.047-.052.092-.106l14.392-17.385a2.159 2.159 0 0 0-.278-3.03 2.136 2.136 0 0 0-3.018.278L65.68 51.121l-9.09-8.34z" stroke="#979797" stroke-width="1.5" fill="#F4F4F5" fill-rule="nonzero"/>
    </g>
</svg>
