<svg xmlns="http://www.w3.org/2000/svg" viewBox="0 0 24 24">
  <g id="icon/navigation/arrow_upward_24px">
    <path id="icon/navigation/arrow_upward_24px_2" d="M13 18.7913V7.62126L17.88 12.5013C18.27 12.8913 18.91 12.8913 19.3 12.5013C19.69 12.1113 19.69 11.4813 19.3 11.0913L12.71 4.50126C12.5231 4.314 12.2695 4.20877 12.005 4.20877C11.7405 4.20877 11.4868 4.314 11.3 4.50126L4.69997 11.0813C4.30997 11.4713 4.30997 12.1013 4.69997 12.4913C5.08997 12.8813 5.71997 12.8813 6.10997 12.4913L11 7.62126V18.7913C11 19.3413 11.45 19.7913 12 19.7913C12.55 19.7913 13 19.3413 13 18.7913Z"/>
  </g>
  <title>Arrow upward rounded </title>
</svg>
