<svg xmlns="http://www.w3.org/2000/svg" viewBox="0 0 24 24">
  <g id="icon/action/supervised_user_circle_24px">
    <path id="icon/action/supervised_user_circle_24px_2" fill-rule="evenodd" clip-rule="evenodd" d="M12 2C6.47998 2 2 6.48001 2 12C2 17.52 6.47998 22 12 22C17.52 22 22 17.52 22 12C22 6.48001 17.52 2 12 2ZM15.61 8.34C16.6801 8.34 17.54 9.19998 17.54 10.27C17.54 11.34 16.6801 12.2 15.61 12.2C14.54 12.2 13.6801 11.34 13.6801 10.27C13.67 9.19998 14.54 8.34 15.61 8.34ZM11.97 9.12C11.97 7.82001 10.91 6.76001 9.60999 6.76001C8.30005 6.76001 7.25 7.81 7.25 9.12C7.25 10.42 8.31006 11.48 9.60999 11.48C10.91 11.48 11.97 10.42 11.97 9.12ZM9.60999 15.89V19.64C7.20996 18.89 5.30994 17.04 4.46997 14.68C5.52002 13.56 8.14001 12.99 9.60999 12.99C10.14 12.99 10.8099 13.07 11.51 13.21C9.87 14.08 9.60999 15.23 9.60999 15.89ZM11.21 19.96C11.47 19.99 11.73 20 12 20C15.39 20 18.2799 17.88 19.45 14.91C18.5299 14.15 16.6799 13.76 15.61 13.76C14.1499 13.76 11.21 14.47 11.21 15.89V19.96Z"/>
  </g>
  <title>Supervised user circle rounded</title>
</svg>
