<svg xmlns="http://www.w3.org/2000/svg">
    <path d="M8 5.667A1.833 1.833 0 1 0 8 2a1.833 1.833 0 0 0 0 3.667zM9.667 7.512a18.845 18.845 0 0 0 1.826-.369.667.667 0 1 0-.32-1.294c-1.27.314-2.229.455-3.17.452-.945-.004-1.905-.153-3.184-.454a.667.667 0 1 0-.305 1.298c.658.155 1.253.275 1.82.358v.83h3.333v-.821z"/>
    <path d="M8.893 10.66c.584-.26.774-.802.774-1.013V9H6.333v.647c0 .21.19.753.774 1.013.067.03.142.067.21.1l.039.02c.083.041.163.08.244.114.17.072.301.106.4.106.099 0 .23-.034.4-.106a4.62 4.62 0 0 0 .244-.114l.04-.02m.21-.1c-.068.03-.143.067-.21.1l.21-.1z"/>
    <path d="M6.812 11.286a1.806 1.806 0 0 1-.818-.72c-.518.45-.802 1.017-.802 1.764 0 .298.063.745.229 1.107.17.371.397.563.685.563.31 0 .57-.236.57-.54 0-.136-.057-.264-.147-.454l-.006-.013c-.082-.172-.19-.399-.19-.663 0-.29.142-.596.31-.844.053-.08.11-.145.169-.2zM9.188 11.285c.394-.179.66-.45.818-.719.518.45.802 1.017.802 1.764 0 .298-.063.745-.229 1.107-.17.371-.397.563-.685.563-.31 0-.57-.236-.57-.54 0-.136.057-.264.147-.454l.006-.013c.082-.172.19-.399.19-.663 0-.29-.142-.596-.31-.844a1.172 1.172 0 0 0-.169-.2z"/>
</svg>
