<svg xmlns="http://www.w3.org/2000/svg">
<path d="M13.6157 11.8091L10 6.8374V2H11V1H5V2H6V6.8374L2.3843 11.8091C2.16631 12.1088 2.03547 12.463 2.00626 12.8325C1.97705 13.202 2.05061 13.5723 2.2188 13.9026C2.38699 14.2329 2.64326 14.5102 2.95926 14.7039C3.27526 14.8975 3.63868 15 4.0093 15H11.9907C12.3613 15 12.7247 14.8975 13.0407 14.7039C13.3567 14.5102 13.613 14.2329 13.7812 13.9026C13.9494 13.5723 14.023 13.202 13.9938 12.8325C13.9645 12.463 13.8337 12.1088 13.6157 11.8091ZM7 7.1626V2H9V7.1626L10.3364 9H5.6636L7 7.1626ZM11.9907 14H4.0093C3.82314 13.9999 3.64061 13.9484 3.4819 13.8511C3.32319 13.7538 3.19447 13.6145 3.10998 13.4486C3.02549 13.2827 2.98852 13.0967 3.00314 12.9111C3.01777 12.7255 3.08342 12.5476 3.19285 12.3969L4.9363 10H11.0637L12.8072 12.3969C12.9166 12.5476 12.9822 12.7255 12.9969 12.9111C13.0115 13.0967 12.9745 13.2827 12.89 13.4486C12.8055 13.6145 12.6768 13.7538 12.5181 13.8511C12.3594 13.9484 12.1769 13.9999 11.9907 14Z" />
</svg>
