<svg xmlns="http://www.w3.org/2000/svg">
<g clip-path="url(#clip0_3145_13241)">
<path d="M16 0H0V16H16V0Z" fill="none"/>
<path d="M4.66663 12.6805V3.33344H8.39491C9.92699 3.31832 10.9163 4.19423 10.9983 5.74679C11.0249 6.25142 10.9042 6.95894 10.7323 7.30159C10.5603 7.64424 10.1123 8.36302 9.11988 8.55267L9.7529 9.77022L10.9285 8.28792H12L10.1679 10.58L11.2692 12.6805H9.99206L9.39384 11.5094L8.48715 12.6805H7.39202L8.97649 10.6582L7.97042 8.65757H5.78235V12.6805H4.66663ZM5.78498 7.70138H8.54962C8.87118 7.68048 9.80257 7.68048 9.80257 5.80886C9.80257 4.57793 9.05456 4.32013 8.38301 4.324H5.78498V7.70138Z" />
</g>
<defs>
<clipPath id="clip0_3145_13241">
<rect width="16" height="16" fill="white"/>
</clipPath>
</defs>
</svg>
