<svg xmlns="http://www.w3.org/2000/svg">
<path d="M9.00002 2V3H12.293L8.44877 6.84425C7.64235 6.21769 6.62743 5.92207 5.61068 6.01757C4.59393 6.11307 3.65181 6.59251 2.97616 7.35828C2.3005 8.12404 1.94213 9.11854 1.974 10.1393C2.00588 11.16 2.42561 12.1302 3.14772 12.8523C3.86984 13.5744 4.84004 13.9941 5.86076 14.026C6.88149 14.0579 7.87599 13.6995 8.64175 13.0239C9.40751 12.3482 9.88696 11.4061 9.98246 10.3893C10.078 9.3726 9.78233 8.35768 9.15578 7.55125L13 3.70705V7H14V2H9.00002ZM6.00002 13C5.40668 13 4.82666 12.8241 4.33331 12.4944C3.83997 12.1648 3.45545 11.6962 3.22839 11.1481C3.00132 10.5999 2.94191 9.99667 3.05767 9.41473C3.17342 8.83279 3.45915 8.29824 3.8787 7.87868C4.29826 7.45912 4.83281 7.1734 5.41475 7.05764C5.9967 6.94189 6.5999 7.0013 7.14808 7.22836C7.69625 7.45542 8.16479 7.83994 8.49443 8.33329C8.82408 8.82664 9.00002 9.40666 9.00002 10C8.99915 10.7954 8.6828 11.5579 8.12038 12.1204C7.55796 12.6828 6.79541 12.9991 6.00002 13Z"/>
</svg>
