<svg xmlns="http://www.w3.org/2000/svg">
<path d="M7.99998 12C8.41419 12 8.74998 11.6642 8.74998 11.25C8.74998 10.8358 8.41419 10.5 7.99998 10.5C7.58577 10.5 7.24998 10.8358 7.24998 11.25C7.24998 11.6642 7.58577 12 7.99998 12Z"/>
<path d="M8.49998 9.49998H7.49998V7.49998H8.49998C8.7652 7.49998 9.01955 7.39462 9.20709 7.20709C9.39462 7.01955 9.49998 6.7652 9.49998 6.49998C9.49998 6.23476 9.39462 5.98041 9.20709 5.79287C9.01955 5.60534 8.7652 5.49998 8.49998 5.49998H7.49998C7.23486 5.50028 6.98068 5.60574 6.79321 5.79321C6.60574 5.98068 6.50028 6.23486 6.49998 6.49998V6.74998H5.49998V6.49998C5.50058 5.96973 5.71148 5.46137 6.08642 5.08642C6.46137 4.71148 6.96973 4.50058 7.49998 4.49998H8.49998C9.03041 4.49998 9.53912 4.71069 9.91419 5.08577C10.2893 5.46084 10.5 5.96955 10.5 6.49998C10.5 7.03041 10.2893 7.53912 9.91419 7.91419C9.53912 8.28927 9.03041 8.49998 8.49998 8.49998V9.49998Z"/>
<path d="M7.99998 15C7.86318 15.0002 7.72768 14.9734 7.60127 14.9211C7.47486 14.8689 7.36003 14.7921 7.26338 14.6953L1.30468 8.73658C1.10958 8.54109 1 8.27617 1 7.99998C1 7.72379 1.10958 7.45887 1.30468 7.26338L7.26338 1.30468C7.45887 1.10958 7.72379 1 7.99998 1C8.27617 1 8.54109 1.10958 8.73658 1.30468L14.6953 7.26338C14.8904 7.45887 15 7.72379 15 7.99998C15 8.27617 14.8904 8.54109 14.6953 8.73658L8.73658 14.6953C8.63993 14.7921 8.5251 14.8689 8.39869 14.9211C8.27228 14.9734 8.13678 15.0002 7.99998 15ZM7.99998 1.99958C7.98891 1.9996 7.97829 2.00398 7.97043 2.01178L2.01178 7.97043C2.00397 7.97828 1.99958 7.9889 1.99958 7.99998C1.99958 8.01105 2.00397 8.02168 2.01178 8.02953L7.97043 13.9882C7.97831 13.9959 7.98892 14.0003 7.99998 14.0003C8.01104 14.0003 8.02165 13.9959 8.02953 13.9882L13.9882 8.02953C13.996 8.02168 14.0004 8.01105 14.0004 7.99998C14.0004 7.9889 13.996 7.97828 13.9882 7.97043L8.02953 2.01178C8.02167 2.00398 8.01105 1.9996 7.99998 1.99958Z"/>
</svg>
