<svg xmlns="http://www.w3.org/2000/svg">
<path d="M8.50001 9.96533C9.50953 9.83814 10.4326 9.33101 11.0814 8.54718C11.7302 7.76334 12.0559 6.76172 11.9922 5.74621C11.9284 4.73071 11.4801 3.77765 10.7384 3.08106C9.99677 2.38447 9.01751 1.9967 8.00001 1.9967C6.9825 1.9967 6.00324 2.38447 5.26157 3.08106C4.5199 3.77765 4.07158 4.73071 4.00786 5.74621C3.94414 6.76172 4.26982 7.76334 4.9186 8.54718C5.56737 9.33101 6.49048 9.83814 7.50001 9.96533V11H5.00001V12H7.50001V14H8.50001V12H11V11H8.50001V9.96533ZM5.00001 5.99998C5.00001 5.40664 5.17595 4.82662 5.5056 4.33327C5.83524 3.83992 6.30378 3.45541 6.85196 3.22834C7.40013 3.00128 8.00333 2.94187 8.58528 3.05763C9.16722 3.17338 9.70177 3.4591 10.1213 3.87866C10.5409 4.29822 10.8266 4.83277 10.9424 5.41471C11.0581 5.99665 10.9987 6.59985 10.7716 7.14803C10.5446 7.69621 10.1601 8.16475 9.66672 8.49439C9.17337 8.82403 8.59335 8.99998 8.00001 8.99998C7.20462 8.99911 6.44207 8.68276 5.87965 8.12034C5.31723 7.55792 5.00088 6.79536 5.00001 5.99998Z"/>
</svg>
