<svg xmlns="http://www.w3.org/2000/svg">
<path d="M11 1V2H13.2929L10.0921 5.2007C9.48945 4.74598 8.755 4.49999 8 4.49999C7.245 4.49999 6.51055 4.74598 5.90785 5.2007L5.20715 4.5L6.5 3.20705L5.79285 2.5L4.5 3.79295L2.70705 2H5V1H1V5H2V2.70705L3.79295 4.5L2.5 5.7927L3.20715 6.5L4.5 5.20705L5.2007 5.9077C4.83595 6.3926 4.60395 6.96424 4.52761 7.5662C4.45127 8.16815 4.53322 8.77961 4.76537 9.34022C4.99753 9.90082 5.37187 10.3912 5.85143 10.7629C6.331 11.1347 6.89922 11.3749 7.5 11.46V12.5H5.5V13.5H7.5V15H8.5V13.5H10.5V12.5H8.5V11.46C9.10077 11.3749 9.66896 11.1347 10.1485 10.7629C10.6281 10.3912 11.0024 9.90079 11.2345 9.34019C11.4667 8.7796 11.5486 8.16815 11.4723 7.56621C11.3959 6.96427 11.1639 6.39265 10.7992 5.90775L14 2.70705V5H15V1H11ZM8 10.5C7.50555 10.5 7.0222 10.3534 6.61107 10.0787C6.19995 9.80397 5.87952 9.41352 5.6903 8.95671C5.50108 8.49989 5.45157 7.99723 5.54804 7.51227C5.6445 7.02732 5.8826 6.58186 6.23223 6.23223C6.58186 5.8826 7.02732 5.6445 7.51227 5.54804C7.99723 5.45157 8.49989 5.50108 8.95671 5.6903C9.41352 5.87952 9.80397 6.19995 10.0787 6.61107C10.3534 7.0222 10.5 7.50555 10.5 8C10.4992 8.6628 10.2356 9.29823 9.7669 9.7669C9.29823 10.2356 8.6628 10.4992 8 10.5Z"/>
</svg>
