<svg xmlns="http://www.w3.org/2000/svg">
<path d="M4 9.5H3V8.5C3.00044 8.10231 3.15861 7.72103 3.43982 7.43982C3.72103 7.15861 4.10231 7.00044 4.5 7H7V8H4.5C4.36744 8.00015 4.24034 8.05287 4.14661 8.14661C4.05287 8.24034 4.00015 8.36744 4 8.5V9.5Z" />
<path d="M6 6.5C5.60444 6.5 5.21776 6.3827 4.88886 6.16294C4.55996 5.94318 4.30362 5.63082 4.15224 5.26537C4.00087 4.89991 3.96126 4.49778 4.03843 4.10982C4.1156 3.72186 4.30608 3.36549 4.58579 3.08579C4.86549 2.80608 5.22186 2.6156 5.60982 2.53843C5.99778 2.46126 6.39991 2.50087 6.76537 2.65224C7.13082 2.80362 7.44318 3.05996 7.66294 3.38886C7.8827 3.71776 8 4.10444 8 4.5C7.9994 5.03025 7.7885 5.53861 7.41356 5.91356C7.03861 6.2885 6.53025 6.4994 6 6.5ZM6 3.5C5.80222 3.5 5.60888 3.55865 5.44443 3.66853C5.27998 3.77841 5.15181 3.93459 5.07612 4.11732C5.00043 4.30004 4.98063 4.50111 5.01921 4.69509C5.0578 4.88907 5.15304 5.06725 5.29289 5.20711C5.43275 5.34696 5.61093 5.4422 5.80491 5.48079C5.99889 5.51937 6.19996 5.49957 6.38268 5.42388C6.56541 5.34819 6.72159 5.22002 6.83147 5.05557C6.94135 4.89112 7 4.69778 7 4.5C6.99972 4.23487 6.89428 3.98068 6.7068 3.7932C6.51932 3.60572 6.26513 3.50028 6 3.5Z" />
<path d="M10 10C9.60444 10 9.21776 9.8827 8.88886 9.66294C8.55996 9.44318 8.30362 9.13082 8.15224 8.76537C8.00087 8.39991 7.96126 7.99778 8.03843 7.60982C8.1156 7.22186 8.30608 6.86549 8.58579 6.58579C8.86549 6.30608 9.22186 6.1156 9.60982 6.03843C9.99778 5.96126 10.3999 6.00087 10.7654 6.15224C11.1308 6.30362 11.4432 6.55996 11.6629 6.88886C11.8827 7.21776 12 7.60444 12 8C11.9994 8.53025 11.7885 9.03861 11.4136 9.41356C11.0386 9.7885 10.5303 9.9994 10 10ZM10 7C9.80222 7 9.60888 7.05865 9.44443 7.16853C9.27998 7.27841 9.15181 7.43459 9.07612 7.61732C9.00043 7.80004 8.98063 8.00111 9.01921 8.19509C9.0578 8.38907 9.15304 8.56725 9.29289 8.70711C9.43275 8.84696 9.61093 8.9422 9.80491 8.98079C9.99889 9.01937 10.2 8.99957 10.3827 8.92388C10.5654 8.84819 10.7216 8.72002 10.8315 8.55557C10.9414 8.39112 11 8.19778 11 8C10.9997 7.73487 10.8943 7.48068 10.7068 7.2932C10.5193 7.10572 10.2651 7.00028 10 7Z" />
<path d="M13 13H12V12C11.9999 11.8674 11.9471 11.7403 11.8534 11.6466C11.7597 11.5529 11.6326 11.5001 11.5 11.5H8.5C8.36744 11.5001 8.24034 11.5529 8.14661 11.6466C8.05287 11.7403 8.00015 11.8674 8 12V13H7V12C7.00044 11.6023 7.15861 11.221 7.43982 10.9398C7.72103 10.6586 8.10231 10.5004 8.5 10.5H11.5C11.8977 10.5004 12.279 10.6586 12.5602 10.9398C12.8414 11.221 12.9996 11.6023 13 12V13Z" />
<path d="M4 15H2C1.73487 14.9997 1.48068 14.8943 1.2932 14.7068C1.10572 14.5193 1.00028 14.2651 1 14V2C1.00028 1.73487 1.10572 1.48068 1.2932 1.2932C1.48068 1.10572 1.73487 1.00028 2 1H4V2H2V14H4V15Z" />
<path d="M14 15H12V14H14V2H12V1H14C14.2651 1.00028 14.5193 1.10572 14.7068 1.2932C14.8943 1.48068 14.9997 1.73487 15 2V14C14.9997 14.2651 14.8943 14.5193 14.7068 14.7068C14.5193 14.8943 14.2651 14.9997 14 15Z" />
</svg>
