<svg xmlns="http://www.w3.org/2000/svg">
<path d="M15.5 15H14.5V13.5C14.5 13.1022 14.342 12.7206 14.0607 12.4393C13.7794 12.158 13.3978 12 13 12H11C10.6022 12 10.2206 12.158 9.93934 12.4393C9.65804 12.7206 9.5 13.1022 9.5 13.5V15H8.5V13.5C8.5 12.837 8.76339 12.2011 9.23223 11.7322C9.70107 11.2634 10.337 11 11 11H13C13.663 11 14.2989 11.2634 14.7678 11.7322C15.2366 12.2011 15.5 12.837 15.5 13.5V15Z" />
<path d="M12 6C12.2967 6 12.5867 6.08797 12.8334 6.2528C13.08 6.41762 13.2723 6.65189 13.3858 6.92597C13.4994 7.20006 13.5291 7.50166 13.4712 7.79264C13.4133 8.08361 13.2704 8.35088 13.0607 8.56066C12.8509 8.77044 12.5836 8.9133 12.2926 8.97118C12.0017 9.02906 11.7001 8.99935 11.426 8.88582C11.1519 8.77229 10.9176 8.58003 10.7528 8.33335C10.588 8.08668 10.5 7.79667 10.5 7.5C10.5 7.10218 10.658 6.72064 10.9393 6.43934C11.2206 6.15804 11.6022 6 12 6ZM12 5C11.5055 5 11.0222 5.14662 10.6111 5.42133C10.2 5.69603 9.87952 6.08648 9.6903 6.54329C9.50108 7.00011 9.45157 7.50277 9.54804 7.98773C9.6445 8.47268 9.8826 8.91814 10.2322 9.26777C10.5819 9.6174 11.0273 9.8555 11.5123 9.95196C11.9972 10.0484 12.4999 9.99892 12.9567 9.8097C13.4135 9.62048 13.804 9.30005 14.0787 8.88893C14.3534 8.4778 14.5 7.99445 14.5 7.5C14.5 6.83696 14.2366 6.20107 13.7678 5.73223C13.2989 5.26339 12.663 5 12 5Z" />
<path d="M7.5 11H6.5V9.5C6.5 9.10217 6.34196 8.72064 6.06066 8.43934C5.77936 8.15804 5.39782 8 5 8H3C2.60218 8 2.22064 8.15804 1.93934 8.43934C1.65804 8.72064 1.5 9.10217 1.5 9.5V11H0.5V9.5C0.5 8.83696 0.763392 8.20107 1.23223 7.73223C1.70107 7.26339 2.33696 7 3 7H5C5.66304 7 6.29893 7.26339 6.76777 7.73223C7.23661 8.20107 7.5 8.83696 7.5 9.5V11Z" />
<path d="M4 2C4.29667 2 4.58668 2.08797 4.83336 2.2528C5.08003 2.41762 5.27229 2.65189 5.38582 2.92597C5.49935 3.20006 5.52906 3.50166 5.47118 3.79264C5.4133 4.08361 5.27044 4.35088 5.06066 4.56066C4.85088 4.77044 4.58361 4.9133 4.29264 4.97118C4.00166 5.02906 3.70006 4.99935 3.42597 4.88582C3.15189 4.77229 2.91762 4.58003 2.7528 4.33336C2.58797 4.08668 2.5 3.79667 2.5 3.5C2.5 3.10218 2.65804 2.72064 2.93934 2.43934C3.22064 2.15804 3.60218 2 4 2ZM4 1C3.50555 1 3.0222 1.14662 2.61107 1.42133C2.19995 1.69603 1.87952 2.08648 1.6903 2.54329C1.50108 3.00011 1.45157 3.50277 1.54804 3.98773C1.6445 4.47268 1.8826 4.91814 2.23223 5.26777C2.58186 5.6174 3.02732 5.8555 3.51227 5.95196C3.99723 6.04843 4.49989 5.99892 4.95671 5.8097C5.41352 5.62048 5.80397 5.30005 6.07867 4.88893C6.35338 4.4778 6.5 3.99445 6.5 3.5C6.5 2.83696 6.23661 2.20107 5.76777 1.73223C5.29893 1.26339 4.66304 1 4 1Z" />
</svg>
