<svg xmlns="http://www.w3.org/2000/svg">
<path d="M12.5 8H8.5C8.23488 8.0003 7.9807 8.10576 7.79323 8.29323C7.60576 8.4807 7.5003 8.73488 7.5 9V12H2V7H1V15H2V13H14V15H15V10.5C14.9992 9.8372 14.7356 9.20177 14.2669 8.7331C13.7982 8.26442 13.1628 8.00078 12.5 8ZM14 12H8.5V9H12.5C12.8977 9.00044 13.279 9.15861 13.5602 9.43982C13.8414 9.72103 13.9996 10.1023 14 10.5V12Z" />
<path d="M4.75 8.5C4.89834 8.5 5.04334 8.54399 5.16668 8.6264C5.29001 8.70881 5.38614 8.82594 5.44291 8.96299C5.49968 9.10003 5.51453 9.25083 5.48559 9.39632C5.45665 9.5418 5.38522 9.67544 5.28033 9.78033C5.17544 9.88522 5.0418 9.95665 4.89632 9.98559C4.75083 10.0145 4.60003 9.99967 4.46299 9.94291C4.32594 9.88614 4.20881 9.79001 4.1264 9.66668C4.04399 9.54334 4 9.39834 4 9.25C4.00023 9.05116 4.07931 8.86052 4.21992 8.71992C4.36052 8.57931 4.55116 8.50023 4.75 8.5ZM4.75 7.5C4.40388 7.5 4.06554 7.60264 3.77775 7.79493C3.48997 7.98722 3.26566 8.26053 3.13321 8.5803C3.00076 8.90007 2.9661 9.25194 3.03363 9.59141C3.10115 9.93087 3.26782 10.2427 3.51256 10.4874C3.75731 10.7322 4.06912 10.8989 4.40859 10.9664C4.74806 11.0339 5.09993 10.9992 5.4197 10.8668C5.73947 10.7343 6.01278 10.51 6.20507 10.2222C6.39736 9.93446 6.5 9.59612 6.5 9.25C6.5 8.78587 6.31563 8.34075 5.98744 8.01256C5.65925 7.68437 5.21413 7.5 4.75 7.5Z" />
<path d="M10.5 3H8.5V1H7.5V3H5.5V4H7.5V6H8.5V4H10.5V3Z" />
</svg>
