<svg width="16" height="16" viewBox="0 0 16 16" fill="none" xmlns="http://www.w3.org/2000/svg">
<g clip-path="url(#clip0_3145_13229)">
<path d="M16 0H0V16H16V0Z" fill="#D9FBFB"/>
<path fill-rule="evenodd" clip-rule="evenodd" d="M13 3.66675H8.33329C8.1492 3.66675 7.99996 3.81599 7.99996 4.00008V8.33341C7.99996 8.51751 8.1492 8.66675 8.33329 8.66675H13C13.1841 8.66675 13.3333 8.51751 13.3333 8.33341V4.00008C13.3333 3.81599 13.1841 3.66675 13 3.66675ZM12 5.66675H11V6.66675H12V7.33341H11V8.00008H10.3333V7.33341H9.33329V6.66675H10.3333V5.66675H9.33329V5.00008H10.3333V4.33341H11V5.00008H12V5.66675ZM7.66663 12.6667H6.99996V11.3334C7.00485 11.0667 6.90106 10.8095 6.71245 10.6209C6.52385 10.4323 6.26664 10.3285 5.99996 10.3334H4.66663C4.39994 10.3285 4.14274 10.4323 3.95413 10.6209C3.76552 10.8095 3.66174 11.0667 3.66663 11.3334V12.6667H2.99996V11.3334C2.99558 10.8901 3.16977 10.4636 3.48329 10.1501C3.7968 9.83656 4.22327 9.66237 4.66663 9.66675H5.99996C6.44331 9.66237 6.86978 9.83656 7.1833 10.1501C7.49681 10.4636 7.671 10.8901 7.66663 11.3334V12.6667ZM5.33329 6.33341C5.88558 6.33341 6.33329 6.78113 6.33329 7.33341C6.33329 7.8857 5.88558 8.33341 5.33329 8.33341C4.78101 8.33341 4.33329 7.8857 4.33329 7.33341C4.33329 6.78113 4.78101 6.33341 5.33329 6.33341ZM5.33329 5.66675C4.41282 5.66675 3.66663 6.41294 3.66663 7.33341C3.66663 8.25389 4.41282 9.00008 5.33329 9.00008C6.25377 9.00008 6.99996 8.25389 6.99996 7.33341C6.99996 6.41294 6.25377 5.66675 5.33329 5.66675Z" fill="#005D5D"/>
</g>
<defs>
<clipPath id="clip0_3145_13229">
<rect width="16" height="16" fill="white"/>
</clipPath>
</defs>
</svg>
