<svg width="24" height="24" viewBox="0 0 24 24" fill="none" xmlns="http://www.w3.org/2000/svg">
<g clip-path="url(#clip0_11156_284425)">
<path d="M24 0H0V24H24V0Z" fill="#FFD7D9"/>
<path fill-rule="evenodd" clip-rule="evenodd" d="M19.5 5.5H12.5C12.2239 5.5 12 5.72386 12 6V12.5C12 12.7761 12.2239 13 12.5 13H19.5C19.7761 13 20 12.7761 20 12.5V6C20 5.72386 19.7761 5.5 19.5 5.5ZM18 8.5H16.5V10H18V11H16.5V12H15.5V11H14V10H15.5V8.5H14V7.5H15.5V6.5H16.5V7.5H18V8.5ZM11.5 19H10.5V17C10.5073 16.6 10.3517 16.2142 10.0687 15.9313C9.78583 15.6483 9.40003 15.4927 9 15.5H7C6.59997 15.4927 6.21417 15.6483 5.93126 15.9313C5.64835 16.2142 5.49267 16.6 5.5 17V19H4.5V17C4.49344 16.335 4.75472 15.6953 5.22499 15.225C5.69526 14.7547 6.33497 14.4934 7 14.5H9C9.66503 14.4934 10.3047 14.7547 10.775 15.225C11.2453 15.6953 11.5066 16.335 11.5 17V19ZM8 9.5C8.82843 9.5 9.5 10.1716 9.5 11C9.5 11.8284 8.82843 12.5 8 12.5C7.17157 12.5 6.5 11.8284 6.5 11C6.5 10.1716 7.17157 9.5 8 9.5ZM8 8.5C6.61929 8.5 5.5 9.61929 5.5 11C5.5 12.3807 6.61929 13.5 8 13.5C9.38071 13.5 10.5 12.3807 10.5 11C10.5 9.61929 9.38071 8.5 8 8.5Z" fill="#A2191F"/>
</g>
<defs>
<clipPath id="clip0_11156_284425">
<rect width="24" height="24" fill="white"/>
</clipPath>
</defs>
</svg>
