<svg xmlns="http://www.w3.org/2000/svg">
<path d="M8.5 11V7H6.5V8H7.5V11H6V12H10V11H8.5Z" />
<path d="M8 4C7.85166 4 7.70666 4.04399 7.58332 4.1264C7.45999 4.20881 7.36386 4.32594 7.30709 4.46299C7.25032 4.60003 7.23547 4.75083 7.26441 4.89632C7.29335 5.0418 7.36478 5.17544 7.46967 5.28033C7.57456 5.38522 7.7082 5.45665 7.85368 5.48559C7.99917 5.51453 8.14997 5.49968 8.28701 5.44291C8.42406 5.38614 8.54119 5.29001 8.6236 5.16668C8.70601 5.04334 8.75 4.89834 8.75 4.75C8.75 4.55109 8.67098 4.36032 8.53033 4.21967C8.38968 4.07902 8.19891 4 8 4Z" />
<path d="M13 14H3C2.73488 13.9997 2.4807 13.8942 2.29323 13.7068C2.10576 13.5193 2.0003 13.2651 2 13V3C2.0003 2.73488 2.10576 2.4807 2.29323 2.29323C2.4807 2.10576 2.73488 2.0003 3 2H13C13.2651 2.0003 13.5193 2.10576 13.7068 2.29323C13.8942 2.4807 13.9997 2.73488 14 3V13C13.9997 13.2651 13.8942 13.5193 13.7068 13.7068C13.5193 13.8942 13.2651 13.9997 13 14ZM3 3V13H13V3H3Z" />
</svg>
