<svg xmlns="http://www.w3.org/2000/svg">
<path d="M11.5 12H9.5V14H11.5V12Z" />
<path d="M15 12H13V14H15V12Z" />
<path d="M11.5 8.5H9.5V10.5H11.5V8.5Z" />
<path d="M15 8.5H13V10.5H15V8.5Z" />
<path d="M8.5 12H2V5H14V7.5H15V5C14.9997 4.73488 14.8942 4.4807 14.7068 4.29323C14.5193 4.10576 14.2651 4.0003 14 4H11V2C10.9997 1.73488 10.8942 1.4807 10.7068 1.29323C10.5193 1.10576 10.2651 1.0003 10 1H6C5.73486 1.00026 5.48066 1.10571 5.29319 1.29319C5.10571 1.48066 5.00026 1.73486 5 2V4H2C1.73486 4.00026 1.48066 4.10571 1.29319 4.29319C1.10571 4.48066 1.00026 4.73486 1 5V12C1.0003 12.2651 1.10576 12.5193 1.29323 12.7068C1.4807 12.8942 1.73488 12.9997 2 13H8.5V12ZM6 2H10V4H6V2Z" />
</svg>
