<svg xmlns="http://www.w3.org/2000/svg">
<path d="M8.00001 9C7.50555 9 7.0222 8.85338 6.61108 8.57867C6.19996 8.30397 5.87953 7.91352 5.69031 7.45671C5.50109 6.99989 5.45158 6.49723 5.54804 6.01227C5.64451 5.52732 5.88261 5.08186 6.23224 4.73223C6.58187 4.3826 7.02733 4.1445 7.51228 4.04804C7.99723 3.95157 8.4999 4.00108 8.95671 4.1903C9.41353 4.37952 9.80398 4.69995 10.0787 5.11107C10.3534 5.5222 10.5 6.00555 10.5 6.5C10.4993 7.16281 10.2356 7.79826 9.76694 8.26693C9.29826 8.73561 8.66282 8.99925 8.00001 9ZM8.00001 5C7.70333 5 7.41332 5.08797 7.16665 5.2528C6.91998 5.41762 6.72772 5.65189 6.61419 5.92597C6.50065 6.20006 6.47095 6.50166 6.52883 6.79264C6.58671 7.08361 6.72957 7.35088 6.93934 7.56066C7.14912 7.77044 7.4164 7.9133 7.70737 7.97118C7.99834 8.02906 8.29994 7.99935 8.57403 7.88582C8.84812 7.77229 9.08239 7.58003 9.24721 7.33336C9.41203 7.08668 9.50001 6.79667 9.50001 6.5C9.49957 6.10231 9.34139 5.72103 9.06018 5.43982C8.77897 5.15861 8.3977 5.00044 8.00001 5Z" />
<path d="M8.00001 15L3.78226 10.0257C3.75831 9.9971 3.60816 9.7999 3.60816 9.7999C2.88761 8.85084 2.49832 7.6916 2.50001 6.5C2.50001 5.04131 3.07947 3.64236 4.11092 2.61091C5.14237 1.57946 6.54131 1 8.00001 1C9.4587 1 10.8576 1.57946 11.8891 2.61091C12.9205 3.64236 13.5 5.04131 13.5 6.5C13.5018 7.69111 13.1128 8.84991 12.3926 9.79865L12.3919 9.7999C12.3919 9.7999 12.2419 9.9971 12.2195 10.0236L8.00001 15ZM4.40626 9.1975C4.40626 9.1975 4.52296 9.3516 4.54956 9.3847L8.00001 13.4539L11.455 9.37895C11.477 9.35135 11.5944 9.1961 11.5944 9.1961C12.183 8.42064 12.5012 7.47356 12.5 6.5C12.5 5.30653 12.0259 4.16193 11.182 3.31802C10.3381 2.47411 9.19348 2 8.00001 2C6.80653 2 5.66194 2.47411 4.81802 3.31802C3.97411 4.16193 3.50001 5.30653 3.50001 6.5C3.4989 7.47409 3.81725 8.42167 4.40626 9.1975Z" />
</svg>
