<svg width="24" height="24" viewBox="0 0 24 24" fill="none" xmlns="http://www.w3.org/2000/svg">
<g clip-path="url(#clip0_12843_1925)">
<path d="M24 0H0V24H24V0Z" fill="#D9FBFB"/>
<rect width="16" height="16" transform="translate(4 4)" fill="#D9FBFB"/>
<path d="M14 14.5H10C9.73478 14.5 9.48043 14.3946 9.29289 14.2071C9.10536 14.0196 9 13.7652 9 13.5V12.5C9 12.2348 9.10536 11.9804 9.29289 11.7929C9.48043 11.6054 9.73478 11.5 10 11.5H14C14.2652 11.5 14.5196 11.6054 14.7071 11.7929C14.8946 11.9804 15 12.2348 15 12.5V13.5C15 13.7652 14.8946 14.0196 14.7071 14.2071C14.5196 14.3946 14.2652 14.5 14 14.5ZM10 12.5V13.5H14V12.5H10Z" fill="#005D5D"/>
<path d="M18 6H6C5.73478 6 5.48043 6.10536 5.29289 6.29289C5.10536 6.48043 5 6.73478 5 7V9C5 9.26522 5.10536 9.51957 5.29289 9.70711C5.48043 9.89464 5.73478 10 6 10V18C6 18.2652 6.10536 18.5196 6.29289 18.7071C6.48043 18.8946 6.73478 19 7 19H17C17.2652 19 17.5196 18.8946 17.7071 18.7071C17.8946 18.5196 18 18.2652 18 18V10C18.2652 10 18.5196 9.89464 18.7071 9.70711C18.8946 9.51957 19 9.26522 19 9V7C19 6.73478 18.8946 6.48043 18.7071 6.29289C18.5196 6.10536 18.2652 6 18 6ZM17 18H7V10H17V18ZM18 9H6V7H18V9Z" fill="#005D5D"/>
</g>
<defs>
<clipPath id="clip0_12843_1925">
<rect width="24" height="24" fill="white"/>
</clipPath>
</defs>
</svg>
