<svg xmlns="http://www.w3.org/2000/svg">
<g clip-path="url(#clip0_3145_13253)">
<path d="M16 0H0V16H16V0Z" fill="none"/>
<rect width="10.6667" height="10.6667" transform="translate(2.66663 2.66675)" fill="none"/>
<path d="M9.33325 9.66667H6.66658C6.48977 9.66667 6.3202 9.59643 6.19518 9.4714C6.07016 9.34638 5.99992 9.17681 5.99992 9V8.33333C5.99992 8.15652 6.07016 7.98695 6.19518 7.86193C6.3202 7.7369 6.48977 7.66667 6.66658 7.66667H9.33325C9.51006 7.66667 9.67963 7.7369 9.80466 7.86193C9.92968 7.98695 9.99992 8.15652 9.99992 8.33333V9C9.99992 9.17681 9.92968 9.34638 9.80466 9.4714C9.67963 9.59643 9.51006 9.66667 9.33325 9.66667ZM6.66658 8.33333V9H9.33325V8.33333H6.66658Z"/>
<path d="M11.9999 4H3.99992C3.82311 4 3.65354 4.07024 3.52851 4.19526C3.40349 4.32029 3.33325 4.48986 3.33325 4.66667V6C3.33325 6.17681 3.40349 6.34638 3.52851 6.4714C3.65354 6.59643 3.82311 6.66667 3.99992 6.66667V12C3.99992 12.1768 4.07016 12.3464 4.19518 12.4714C4.3202 12.5964 4.48977 12.6667 4.66659 12.6667H11.3333C11.5101 12.6667 11.6796 12.5964 11.8047 12.4714C11.9297 12.3464 11.9999 12.1768 11.9999 12V6.66667C12.1767 6.66667 12.3463 6.59643 12.4713 6.4714C12.5963 6.34638 12.6666 6.17681 12.6666 6V4.66667C12.6666 4.48986 12.5963 4.32029 12.4713 4.19526C12.3463 4.07024 12.1767 4 11.9999 4ZM11.3333 12H4.66659V6.66667H11.3333V12ZM11.9999 6H3.99992V4.66667H11.9999V6Z" />
</g>
<defs>
<clipPath id="clip0_3145_13253">
<rect width="16" height="16" fill="white"/>
</clipPath>
</defs>
</svg>
