<svg xmlns="http://www.w3.org/2000/svg">
<path d="M12.6972 11.9999C12.9958 11.283 13.0759 10.4938 12.9272 9.73153C12.7786 8.96925 12.4079 8.26792 11.8618 7.71573C12.0121 7.33715 12.0406 6.92113 11.9434 6.52557C11.8463 6.13001 11.6282 5.77458 11.3196 5.50873L12.7076 4.12078C12.8948 3.93308 13 3.67877 13 3.41363C13 3.14849 12.8948 2.89418 12.7076 2.70648L11.2935 1.29238C11.1058 1.10507 10.8515 0.999878 10.5863 0.999878C10.3211 0.999878 10.0668 1.10507 9.87915 1.29238L3.29295 7.87858C3.10572 8.0663 3.00057 8.3206 3.00057 8.58573C3.00057 8.85086 3.10572 9.10517 3.29295 9.29288L4.70705 10.707C4.89475 10.8943 5.14906 10.9994 5.4142 10.9994C5.67934 10.9994 5.93365 10.8943 6.12135 10.707L8.5088 8.31928C8.84733 8.71101 9.32668 8.95342 9.84283 8.99391C10.359 9.03441 10.8703 8.86972 11.2657 8.53558C11.6768 9.00586 11.9292 9.59367 11.9872 10.2156C12.0452 10.8374 11.9058 11.4618 11.5887 11.9999H8V13.9999H2V14.9999H14V11.9999H12.6972ZM5.41405 9.99993L4 8.58563L4.93935 7.64643L6.3535 9.06048L5.41405 9.99993ZM8 6.99993C8.00073 7.12626 8.01349 7.25222 8.0381 7.37613L7.06055 8.35343L5.64635 6.93938L10.5864 1.99938L12.0005 3.41348L10.3761 5.03803C10.0868 4.98054 9.7883 4.98813 9.50228 5.06026C9.21627 5.13238 8.94987 5.26723 8.72242 5.45504C8.49496 5.64285 8.31213 5.87891 8.18718 6.14611C8.06224 6.41331 7.9983 6.70496 8 6.99993ZM10 7.99993C9.80222 7.99993 9.60888 7.94128 9.44443 7.8314C9.27998 7.72152 9.15181 7.56534 9.07612 7.38261C9.00043 7.19989 8.98063 6.99882 9.01921 6.80484C9.0578 6.61086 9.15304 6.43268 9.29289 6.29282C9.43275 6.15297 9.61093 6.05773 9.80491 6.01915C9.99889 5.98056 10.2 6.00036 10.3827 6.07605C10.5654 6.15174 10.7216 6.27991 10.8315 6.44436C10.9414 6.60881 11 6.80215 11 6.99993C10.9997 7.26505 10.8942 7.51923 10.7068 7.7067C10.5193 7.89417 10.2651 7.99963 10 7.99993ZM13 13.9999H9V12.9999H13V13.9999Z" />
</svg>
