<svg xmlns="http://www.w3.org/2000/svg">
    <path d="M11.022 7.123a.833.833 0 0 0-.878-.445l-4.417.725c-.367.06-.683.291-.852.622l-1.451 2.859a.833.833 0 0 0 .068.866l1.91 2.633a.833.833 0 0 0 1.35-.979l-.564-.776a.665.665 0 0 1 .358-.46l1.077-.531-1.077-.53a.667.667 0 0 1-.372-.598V9.192a.667.667 0 0 1 1.333 0v.902l1.92.945a.667.667 0 0 1 .206 1.04l.007-.003-.418.576a.833.833 0 1 0 1.35.979l1.91-2.633a.833.833 0 0 0 .068-.867l-1.528-3.008zm.311 2.377A1.167 1.167 0 1 1 9 9.5a1.167 1.167 0 0 1 2.333 0z"/>
    <path d="M10.333 3.667a2.333 2.333 0 1 1-4.666 0 2.333 2.333 0 0 1 4.666 0z"/>
</svg>
