<svg xmlns="http://www.w3.org/2000/svg">
<path d="M12 10L11.295 10.705L13.085 12.5H5C4.46957 12.5 3.96086 12.2893 3.58579 11.9142C3.21071 11.5391 3 11.0304 3 10.5C3 9.96957 3.21071 9.46086 3.58579 9.08579C3.96086 8.71071 4.46957 8.5 5 8.5H11C11.7956 8.5 12.5587 8.18393 13.1213 7.62132C13.6839 7.05871 14 6.29565 14 5.5C14 4.70435 13.6839 3.94129 13.1213 3.37868C12.5587 2.81607 11.7956 2.5 11 2.5H2.915L4.705 0.705L4 0L1 3L4 6L4.705 5.295L2.915 3.5H11C11.5304 3.5 12.0391 3.71071 12.4142 4.08579C12.7893 4.46086 13 4.96957 13 5.5C13 6.03043 12.7893 6.53914 12.4142 6.91421C12.0391 7.28929 11.5304 7.5 11 7.5H5C4.20435 7.5 3.44129 7.81607 2.87868 8.37868C2.31607 8.94129 2 9.70435 2 10.5C2 11.2956 2.31607 12.0587 2.87868 12.6213C3.44129 13.1839 4.20435 13.5 5 13.5H13.085L11.295 15.295L12 16L15 13L12 10Z" />
</svg>
