<svg xmlns="http://www.w3.org/2000/svg">
<path d="M10.5 1C9.7973 0.99982 9.10433 1.16425 8.47663 1.48011C7.84892 1.79597 7.30393 2.25448 6.88534 2.81889C6.46674 3.3833 6.18618 4.03792 6.06613 4.73029C5.94609 5.42265 5.9899 6.13351 6.19405 6.8059L1 12V15H4L9.19405 9.8059C9.81302 9.99383 10.4652 10.0461 11.1062 9.95917C11.7472 9.87223 12.3619 9.64812 12.9085 9.30211C13.455 8.9561 13.9206 8.49632 14.2733 7.95411C14.6261 7.41191 14.8578 6.80002 14.9527 6.16015C15.0476 5.52028 15.0035 4.86747 14.8232 4.24622C14.643 3.62497 14.331 3.04987 13.9084 2.56013C13.4858 2.07039 12.9625 1.67752 12.3744 1.40829C11.7862 1.13905 11.1469 0.999796 10.5 1ZM10.5 9C10.1557 8.99979 9.81334 8.94888 9.4839 8.8489L8.9105 8.675L6.89635 10.6892L6.20705 10L5.5 10.7071L6.18935 11.3963L5.3964 12.1894L4.70705 11.5L4 12.2071L4.68935 12.8963L3.5858 14H2V12.4142L7.32475 7.08935L7.1511 6.516C6.93739 5.81149 6.95127 5.05753 7.19078 4.36137C7.43028 3.66521 7.88321 3.0623 8.48514 2.6384C9.08706 2.2145 9.80733 1.9912 10.5435 2.00027C11.2796 2.00933 11.9942 2.2503 12.5855 2.68889C13.1768 3.12748 13.6147 3.74136 13.837 4.44321C14.0593 5.14506 14.0546 5.89913 13.8236 6.59816C13.5927 7.2972 13.1471 7.90559 12.5504 8.3368C11.9537 8.76801 11.2362 9.00008 10.5 9Z"/>
<path d="M11 6C11.5523 6 12 5.55228 12 5C12 4.44772 11.5523 4 11 4C10.4477 4 10 4.44772 10 5C10 5.55228 10.4477 6 11 6Z"/>
</svg>
