<svg xmlns="http://www.w3.org/2000/svg">
<path d="M10 15H8.5C8.23487 14.9997 7.98068 14.8943 7.7932 14.7068C7.60572 14.5193 7.50028 14.2651 7.5 14V11.5H8.5V14H10V11.5H11V9.5C10.9999 9.36744 10.9471 9.24035 10.8534 9.14661C10.7597 9.05287 10.6326 9.00015 10.5 9H6.13965L5.13965 6H2C1.86744 6.00015 1.74034 6.05287 1.64661 6.14661C1.55287 6.24035 1.50015 6.36744 1.5 6.5V9.5H2.5V14H4.5V10.5H5.5V14C5.49972 14.2651 5.39428 14.5193 5.2068 14.7068C5.01932 14.8943 4.76513 14.9997 4.5 15H2.5C2.23487 14.9997 1.98068 14.8943 1.7932 14.7068C1.60572 14.5193 1.50028 14.2651 1.5 14V10.5C1.23487 10.4997 0.980676 10.3943 0.7932 10.2068C0.605724 10.0193 0.500278 9.76513 0.5 9.5V6.5C0.500437 6.10231 0.658612 5.72103 0.939822 5.43982C1.22103 5.15861 1.60231 5.00044 2 5H5.13965C5.34957 4.99983 5.55421 5.06579 5.72452 5.18852C5.89483 5.31125 6.02215 5.48451 6.0884 5.6837L6.86035 8H10.5C10.8977 8.00044 11.279 8.15861 11.5602 8.43982C11.8414 8.72103 11.9996 9.10231 12 9.5V11.5C11.9997 11.7651 11.8943 12.0193 11.7068 12.2068C11.5193 12.3943 11.2651 12.4997 11 12.5V14C10.9997 14.2651 10.8943 14.5193 10.7068 14.7068C10.5193 14.8943 10.2651 14.9997 10 15Z" />
<path d="M14 15H13V9.5H14.5V6.5C14.4999 6.36744 14.4471 6.24035 14.3534 6.14661C14.2597 6.05287 14.1326 6.00015 14 6H12V5H14C14.3977 5.00044 14.779 5.15861 15.0602 5.43982C15.3414 5.72103 15.4996 6.10231 15.5 6.5V9.5C15.4997 9.76513 15.3943 10.0193 15.2068 10.2068C15.0193 10.3943 14.7651 10.4997 14.5 10.5H14V15Z" />
<path d="M3.5 4.5C3.10444 4.5 2.71776 4.3827 2.38886 4.16294C2.05996 3.94318 1.80362 3.63082 1.65224 3.26537C1.50087 2.89992 1.46126 2.49778 1.53843 2.10982C1.6156 1.72186 1.80608 1.36549 2.08579 1.08579C2.36549 0.806082 2.72186 0.615601 3.10982 0.53843C3.49778 0.46126 3.89991 0.500867 4.26537 0.652242C4.63082 0.803617 4.94318 1.05996 5.16294 1.38886C5.3827 1.71776 5.5 2.10444 5.5 2.5C5.4994 3.03025 5.2885 3.53861 4.91356 3.91356C4.53861 4.2885 4.03025 4.49941 3.5 4.5ZM3.5 1.5C3.30222 1.5 3.10888 1.55865 2.94443 1.66853C2.77998 1.77841 2.65181 1.93459 2.57612 2.11732C2.50043 2.30004 2.48063 2.50111 2.51921 2.69509C2.5578 2.88907 2.65304 3.06726 2.79289 3.20711C2.93275 3.34696 3.11093 3.4422 3.30491 3.48079C3.49889 3.51937 3.69996 3.49957 3.88268 3.42388C4.06541 3.34819 4.22159 3.22002 4.33147 3.05557C4.44135 2.89112 4.5 2.69778 4.5 2.5C4.49972 2.23487 4.39428 1.98068 4.2068 1.7932C4.01932 1.60573 3.76513 1.50028 3.5 1.5Z" />
<path d="M12.5 4.5C12.1044 4.5 11.7178 4.3827 11.3889 4.16294C11.06 3.94318 10.8036 3.63082 10.6522 3.26537C10.5009 2.89992 10.4613 2.49778 10.5384 2.10982C10.6156 1.72186 10.8061 1.36549 11.0858 1.08579C11.3655 0.806082 11.7219 0.615601 12.1098 0.53843C12.4978 0.46126 12.8999 0.500867 13.2654 0.652242C13.6308 0.803617 13.9432 1.05996 14.1629 1.38886C14.3827 1.71776 14.5 2.10444 14.5 2.5C14.4994 3.03025 14.2885 3.53861 13.9136 3.91356C13.5386 4.2885 13.0303 4.49941 12.5 4.5ZM12.5 1.5C12.3022 1.5 12.1089 1.55865 11.9444 1.66853C11.78 1.77841 11.6518 1.93459 11.5761 2.11732C11.5004 2.30004 11.4806 2.50111 11.5192 2.69509C11.5578 2.88907 11.653 3.06726 11.7929 3.20711C11.9327 3.34696 12.1109 3.4422 12.3049 3.48079C12.4989 3.51937 12.7 3.49957 12.8827 3.42388C13.0654 3.34819 13.2216 3.22002 13.3315 3.05557C13.4414 2.89112 13.5 2.69778 13.5 2.5C13.4997 2.23487 13.3943 1.98068 13.2068 1.7932C13.0193 1.60573 12.7651 1.50028 12.5 1.5Z" />
<path d="M9.25 7.5C8.90388 7.5 8.56554 7.39737 8.27775 7.20507C7.98997 7.01278 7.76566 6.73947 7.63321 6.4197C7.50076 6.09993 7.4661 5.74806 7.53363 5.40859C7.60115 5.06913 7.76782 4.75731 8.01256 4.51256C8.2573 4.26782 8.56913 4.10115 8.90859 4.03363C9.24806 3.9661 9.59993 4.00076 9.9197 4.13321C10.2395 4.26567 10.5128 4.48997 10.7051 4.77775C10.8974 5.06554 11 5.40388 11 5.75C10.9995 6.21396 10.8149 6.65877 10.4868 6.98684C10.1588 7.31491 9.71396 7.49946 9.25 7.5ZM9.25 5C9.10166 5 8.95666 5.04399 8.83332 5.1264C8.70999 5.20881 8.61386 5.32594 8.55709 5.46299C8.50033 5.60003 8.48547 5.75083 8.51441 5.89632C8.54335 6.0418 8.61478 6.17544 8.71967 6.28033C8.82456 6.38522 8.9582 6.45665 9.10368 6.48559C9.24917 6.51453 9.39997 6.49968 9.53701 6.44291C9.67406 6.38614 9.79119 6.29002 9.8736 6.16668C9.95601 6.04334 10 5.89834 10 5.75C9.99977 5.55116 9.92068 5.36052 9.78008 5.21992C9.63948 5.07932 9.44884 5.00023 9.25 5Z" />
</svg>
