<svg xmlns="http://www.w3.org/2000/svg">
<path d="M13.6535 3.05345L15 1.70705L14.2929 1L12.9466 2.34645L12.4 1.8C12.3097 1.70517 12.2011 1.62966 12.0808 1.57807C11.9605 1.52648 11.8309 1.49988 11.7 1.49988C11.5691 1.49988 11.4395 1.52648 11.3192 1.57807C11.1989 1.62966 11.0903 1.70517 11 1.8L2 10.8V14H5.2L14.2 5C14.2948 4.90973 14.3703 4.80114 14.4219 4.68081C14.4735 4.56048 14.5001 4.43092 14.5001 4.3C14.5001 4.16908 14.4735 4.03952 14.4219 3.91919C14.3703 3.79886 14.2948 3.69027 14.2 3.6L13.6535 3.05345ZM4.8 13H3V11.2L11.7 2.5L13.5 4.3L4.8 13Z" />
<path d="M8.29297 2L4.50001 5.79296L5.20705 6.5L9 2.70704L8.29297 2Z" />
</svg>
