<svg width="24" height="24" viewBox="0 0 24 24" fill="none" xmlns="http://www.w3.org/2000/svg">
<g clip-path="url(#clip0_12843_1992)">
<path d="M24 0H0V24H24V0Z" fill="#D9FBFB"/>
<rect width="16" height="16" transform="translate(4 4)" fill="#D9FBFB"/>
<path d="M18.415 6.58504C18.0337 6.2213 17.527 6.01837 17 6.01837C16.473 6.01837 15.9663 6.2213 15.585 6.58504L4.16998 18H8.79498C9.45675 17.9999 10.0915 17.7374 10.56 17.27L18.415 9.41504C18.6009 9.22929 18.7485 9.00872 18.8491 8.76592C18.9498 8.52312 19.0016 8.26287 19.0016 8.00004C19.0016 7.73721 18.9498 7.47695 18.8491 7.23416C18.7485 6.99136 18.6009 6.77079 18.415 6.58504ZM10.145 13.44L11.19 12.395L12.605 13.81L11.56 14.855L10.145 13.44ZM9.85498 16.56C9.57395 16.8414 9.19267 16.9997 8.79498 17H6.58498L9.43998 14.145L10.855 15.56L9.85498 16.56ZM17.705 8.70504L13.31 13.105L11.895 11.69L16.295 7.29504C16.4823 7.10879 16.7358 7.00425 17 7.00425C17.2642 7.00425 17.5176 7.10879 17.705 7.29504C17.8912 7.4824 17.9958 7.73585 17.9958 8.00004C17.9958 8.26422 17.8912 8.51768 17.705 8.70504Z" fill="#005D5D"/>
</g>
<defs>
<clipPath id="clip0_12843_1992">
<rect width="24" height="24" fill="white"/>
</clipPath>
</defs>
</svg>
