<svg xmlns="http://www.w3.org/2000/svg">
<path d="M12.2766 4.38999C12.0224 4.14749 11.6846 4.01221 11.3332 4.01221C10.9819 4.01221 10.6441 4.14749 10.3899 4.38999L2.77991 12H5.86324C6.30442 11.9999 6.72756 11.8249 7.03991 11.5133L12.2766 6.27665C12.4005 6.15282 12.4989 6.00577 12.566 5.84391C12.6331 5.68204 12.6676 5.50854 12.6676 5.33332C12.6676 5.1581 12.6331 4.9846 12.566 4.82273C12.4989 4.66087 12.4005 4.51382 12.2766 4.38999V4.38999ZM6.76324 8.95998L7.45991 8.26332L8.40324 9.20665L7.70657 9.90332L6.76324 8.95998ZM6.56991 11.04C6.38255 11.2276 6.12837 11.3331 5.86324 11.3333H4.38991L6.29324 9.42999L7.23657 10.3733L6.56991 11.04ZM11.8032 5.80332L8.87324 8.73665L7.92991 7.79332L10.8632 4.86332C10.9881 4.73915 11.1571 4.66946 11.3332 4.66946C11.5094 4.66946 11.6783 4.73915 11.8032 4.86332C11.9274 4.98823 11.9971 5.15719 11.9971 5.33332C11.9971 5.50944 11.9274 5.67841 11.8032 5.80332V5.80332Z" />
</svg>
