<svg xmlns="http://www.w3.org/2000/svg">
<g>
<path d="M15 15H14V14C14 13.7243 13.7759 13.5 13.5 13.5H10.5C10.2241 13.5 10 13.7243 10 14V15H9V14C9 13.1729 9.67285 12.5 10.5 12.5H13.5C14.3271 12.5 15 13.1729 15 14V15Z"/>
<path d="M12 12C10.897 12 10 11.1028 10 10C10 8.8972 10.897 8 12 8C13.103 8 14 8.8972 14 10C14 11.1028 13.103 12 12 12ZM12 9C11.4488 9 11 9.4485 11 10C11 10.5515 11.4488 11 12 11C12.5512 11 13 10.5515 13 10C13 9.4485 12.5512 9 12 9Z"/>
<path d="M5 10H4V11H5V10Z"/>
<path d="M9 10H6V11H9V10Z"/>
<path d="M5 8H4V9H5V8Z"/>
<path d="M9 8H6V9H9V8Z"/>
<path d="M5 6H4V7H5V6Z"/>
<path d="M9 6H6V7H9V6Z"/>
<path d="M10.5 2.5H9V2C9 1.4485 8.55125 1 8 1H5C4.44875 1 4 1.4485 4 2V2.5H2.5C1.94875 2.5 1.5 2.9485 1.5 3.5V13C1.5 13.5515 1.94875 14 2.5 14H7V13H2.5V3.5H4V4.5H9V3.5H10.5V6.99995H11.5V3.5C11.5 2.9485 11.0513 2.5 10.5 2.5ZM8 3.5H5V2H8V3.5Z" />
</g>
</svg>
