<svg width="24" height="24" viewBox="0 0 24 24" fill="none" xmlns="http://www.w3.org/2000/svg">
<g clip-path="url(#clip0_11156_284396)">
<path d="M24 0H0V24H24V0Z" fill="#A7F0BA"/>
<path fill-rule="evenodd" clip-rule="evenodd" d="M7 14.5V14H6V14.5C6 16.433 7.567 18 9.5 18H11V17H9.5C8.11929 17 7 15.8807 7 14.5ZM16 9.5V10H17V9.5C17 7.567 15.433 6 13.5 6H12V7H13.5C14.163 7 14.7989 7.26339 15.2678 7.73223C15.7366 8.20107 16 8.83696 16 9.5ZM9.5 9.5H6.5C5.67157 9.5 5 10.1716 5 11V12H6V11C6 10.7239 6.22386 10.5 6.5 10.5H9.5C9.77614 10.5 10 10.7239 10 11V12H11V11C11 10.1716 10.3284 9.5 9.5 9.5ZM8 9C9.10457 9 10 8.10457 10 7C10 5.89543 9.10457 5 8 5C6.89543 5 6 5.89543 6 7C6 8.10457 6.89543 9 8 9ZM8 6C8.55228 6 9 6.44772 9 7C9 7.55228 8.55228 8 8 8C7.44772 8 7 7.55228 7 7C7 6.44772 7.44772 6 8 6ZM17.5 16.5H14.5C13.6716 16.5 13 17.1716 13 18V19H14V18C14 17.7239 14.2239 17.5 14.5 17.5H17.5C17.7761 17.5 18 17.7239 18 18V19H19V18C19 17.1716 18.3284 16.5 17.5 16.5ZM14 14C14 15.1046 14.8954 16 16 16C17.1046 16 18 15.1046 18 14C18 12.8954 17.1046 12 16 12C14.8954 12 14 12.8954 14 14ZM17 14C17 14.5523 16.5523 15 16 15C15.4477 15 15 14.5523 15 14C15 13.4477 15.4477 13 16 13C16.5523 13 17 13.4477 17 14Z" fill="#0E6027"/>
</g>
<defs>
<clipPath id="clip0_11156_284396">
<rect width="24" height="24" fill="white"/>
</clipPath>
</defs>
</svg>
