<svg xmlns="http://www.w3.org/2000/svg">
<g clip-path="url(#clip0_3145_13197)">
<path d="M16 0H0V16H16V0Z" fill="none"/>
<path fill-rule="evenodd" clip-rule="evenodd" d="M4.66671 9.66659V9.33325H4.00004V9.66659C4.00004 10.9552 5.04471 11.9999 6.33337 11.9999H7.33337V11.3333H6.33337C5.4129 11.3333 4.66671 10.5871 4.66671 9.66659ZM10.6667 6.33325V6.66659H11.3334V6.33325C11.3334 5.04459 10.2887 3.99992 9.00004 3.99992H8.00004V4.66659H9.00004C9.44207 4.66659 9.86599 4.84218 10.1786 5.15474C10.4911 5.4673 10.6667 5.89122 10.6667 6.33325ZM6.33337 6.33325H4.33337C3.78109 6.33325 3.33337 6.78097 3.33337 7.33325V7.99992H4.00004V7.33325C4.00004 7.14916 4.14928 6.99992 4.33337 6.99992H6.33337C6.51747 6.99992 6.66671 7.14916 6.66671 7.33325V7.99992H7.33337V7.33325C7.33337 6.78097 6.88566 6.33325 6.33337 6.33325ZM5.33337 5.99992C6.06975 5.99992 6.66671 5.40297 6.66671 4.66659C6.66671 3.93021 6.06975 3.33325 5.33337 3.33325C4.59699 3.33325 4.00004 3.93021 4.00004 4.66659C4.00004 5.40297 4.59699 5.99992 5.33337 5.99992ZM5.33337 3.99992C5.70156 3.99992 6.00004 4.2984 6.00004 4.66659C6.00004 5.03478 5.70156 5.33325 5.33337 5.33325C4.96518 5.33325 4.66671 5.03478 4.66671 4.66659C4.66671 4.2984 4.96518 3.99992 5.33337 3.99992ZM11.6667 10.9999H9.66671C9.11442 10.9999 8.66671 11.4476 8.66671 11.9999V12.6666H9.33337V11.9999C9.33337 11.8158 9.48261 11.6666 9.66671 11.6666H11.6667C11.8508 11.6666 12 11.8158 12 11.9999V12.6666H12.6667V11.9999C12.6667 11.4476 12.219 10.9999 11.6667 10.9999ZM9.33337 9.33325C9.33337 10.0696 9.93033 10.6666 10.6667 10.6666C11.4031 10.6666 12 10.0696 12 9.33325C12 8.59687 11.4031 7.99992 10.6667 7.99992C9.93033 7.99992 9.33337 8.59687 9.33337 9.33325ZM11.3334 9.33325C11.3334 9.70144 11.0349 9.99992 10.6667 9.99992C10.2985 9.99992 10 9.70144 10 9.33325C10 8.96506 10.2985 8.66659 10.6667 8.66659C11.0349 8.66659 11.3334 8.96506 11.3334 9.33325Z" />
</g>
<defs>
<clipPath id="clip0_3145_13197">
<rect width="16" height="16" fill="white"/>
</clipPath>
</defs>
</svg>
