<svg xmlns="http://www.w3.org/2000/svg" viewBox="0 0 24 24">
  <g id="icon/action/search_24px">
    <path id="icon/action/search_24px_2" fill-rule="evenodd" clip-rule="evenodd" d="M15.1865 14.4716H15.9765L20.2165 18.7316C20.6266 19.1416 20.6266 19.8116 20.2165 20.2216C19.8065 20.6316 19.1366 20.6316 18.7265 20.2216L14.4765 15.9716V15.1816L14.2065 14.9016C12.8065 16.1016 10.8966 16.7216 8.86655 16.3816C6.08652 15.9116 3.86655 13.5916 3.52658 10.7916C3.00656 6.56158 6.5665 3.00158 10.7966 3.52157C13.5965 3.86157 15.9166 6.08157 16.3866 8.86157C16.7265 10.8916 16.1065 12.8016 14.9066 14.2016L15.1865 14.4716ZM5.47653 9.97155C5.47653 12.4615 7.48654 14.4716 9.97653 14.4716C12.4665 14.4716 14.4765 12.4615 14.4765 9.97155C14.4765 7.48156 12.4665 5.47155 9.97653 5.47155C7.48654 5.47155 5.47653 7.48156 5.47653 9.97155Z"/>
  </g>
  <title>Search rounded</title>
</svg>
