<svg xmlns="http://www.w3.org/2000/svg">
<path d="M13.5 8.3802C13.5 8.2552 13.5 8.1302 13.5 8.0002C13.5 7.8702 13.5 7.7452 13.5 7.6152L14.46 6.7752C14.637 6.61923 14.7531 6.40572 14.7879 6.1724C14.8226 5.93909 14.7738 5.701 14.65 5.5002L13.47 3.5002C13.3823 3.34833 13.2562 3.22219 13.1044 3.13443C12.9526 3.04667 12.7804 3.00038 12.605 3.0002C12.4963 2.99937 12.3882 3.01626 12.285 3.0502L11.07 3.4602C10.8602 3.32081 10.6414 3.19553 10.415 3.0852L10.16 1.8252C10.1143 1.59501 9.98905 1.38822 9.80623 1.24105C9.62341 1.09389 9.39466 1.01571 9.16 1.0202H6.82C6.58535 1.01571 6.3566 1.09389 6.17378 1.24105C5.99096 1.38822 5.86573 1.59501 5.82 1.8252L5.565 3.0852C5.33697 3.1955 5.11649 3.32078 4.905 3.4602L3.715 3.0302C3.61065 3.00302 3.50259 2.99288 3.395 3.0002C3.21964 3.00038 3.04741 3.04667 2.89559 3.13443C2.74376 3.22219 2.61769 3.34833 2.53 3.5002L1.35 5.5002C1.2333 5.7007 1.18993 5.93553 1.22733 6.16448C1.26473 6.39344 1.38057 6.60227 1.555 6.7552L2.5 7.6202C2.5 7.7452 2.5 7.8702 2.5 8.0002C2.5 8.1302 2.5 8.2552 2.5 8.3852L1.555 9.2252C1.37564 9.3792 1.25663 9.59177 1.2191 9.82518C1.18158 10.0586 1.22795 10.2977 1.35 10.5002L2.53 12.5002C2.61769 12.6521 2.74376 12.7782 2.89559 12.866C3.04741 12.9537 3.21964 13 3.395 13.0002C3.50368 13.001 3.61176 12.9841 3.715 12.9502L4.93 12.5402C5.13977 12.6796 5.35859 12.8049 5.585 12.9152L5.84 14.1752C5.88573 14.4054 6.01096 14.6122 6.19378 14.7594C6.3766 14.9065 6.60535 14.9847 6.84 14.9802H9.2C9.43466 14.9847 9.66341 14.9065 9.84623 14.7594C10.029 14.6122 10.1543 14.4054 10.2 14.1752L10.455 12.9152C10.683 12.8049 10.9035 12.6796 11.115 12.5402L12.325 12.9502C12.4282 12.9841 12.5363 13.001 12.645 13.0002C12.8204 13 12.9926 12.9537 13.1444 12.866C13.2962 12.7782 13.4223 12.6521 13.51 12.5002L14.65 10.5002C14.7667 10.2997 14.8101 10.0649 14.7727 9.83592C14.7353 9.60697 14.6194 9.39814 14.445 9.2452L13.5 8.3802ZM12.605 12.0002L10.89 11.4202C10.4885 11.7603 10.0297 12.0261 9.535 12.2052L9.18 14.0002H6.82L6.465 12.2252C5.97422 12.041 5.51786 11.7756 5.115 11.4402L3.395 12.0002L2.215 10.0002L3.575 8.8002C3.48255 8.28263 3.48255 7.75277 3.575 7.2352L2.215 6.0002L3.395 4.0002L5.11 4.5802C5.51147 4.24015 5.97031 3.97433 6.465 3.7952L6.82 2.0002H9.18L9.535 3.7752C10.0258 3.95941 10.4821 4.22477 10.885 4.5602L12.605 4.0002L13.785 6.0002L12.425 7.2002C12.5175 7.71777 12.5175 8.24763 12.425 8.7652L13.785 10.0002L12.605 12.0002Z" />
<path d="M8 11.0002C7.40666 11.0002 6.82664 10.8243 6.33329 10.4946C5.83995 10.165 5.45543 9.69643 5.22837 9.14825C5.0013 8.60008 4.94189 7.99688 5.05765 7.41493C5.1734 6.83299 5.45913 6.29844 5.87868 5.87888C6.29824 5.45933 6.83279 5.1736 7.41473 5.05785C7.99668 4.94209 8.59988 5.0015 9.14805 5.22857C9.69623 5.45563 10.1648 5.84015 10.4944 6.33349C10.8241 6.82684 11 7.40686 11 8.0002C11.004 8.39528 10.9292 8.78719 10.7798 9.15298C10.6305 9.51877 10.4096 9.85109 10.1303 10.1305C9.85089 10.4098 9.51857 10.6307 9.15278 10.78C8.787 10.9294 8.39508 11.0042 8 11.0002ZM8 6.0002C7.73568 5.99405 7.47285 6.04157 7.22741 6.1399C6.98198 6.23823 6.75904 6.38532 6.57208 6.57228C6.38512 6.75924 6.23803 6.98218 6.1397 7.22761C6.04137 7.47305 5.99385 7.73588 6 8.0002C5.99385 8.26453 6.04137 8.52736 6.1397 8.7728C6.23803 9.01823 6.38512 9.24117 6.57208 9.42813C6.75904 9.61509 6.98198 9.76218 7.22741 9.86051C7.47285 9.95884 7.73568 10.0064 8 10.0002C8.26433 10.0064 8.52716 9.95884 8.7726 9.86051C9.01803 9.76218 9.24097 9.61509 9.42793 9.42813C9.61489 9.24117 9.76198 9.01823 9.86031 8.7728C9.95864 8.52736 10.0062 8.26453 10 8.0002C10.0062 7.73588 9.95864 7.47305 9.86031 7.22761C9.76198 6.98218 9.61489 6.75924 9.42793 6.57228C9.24097 6.38532 9.01803 6.23823 8.7726 6.1399C8.52716 6.04157 8.26433 5.99405 8 6.0002Z" />
</svg>
