<svg xmlns="http://www.w3.org/2000/svg">
<path d="M5 15C5.55228 15 6 14.5523 6 14C6 13.4477 5.55228 13 5 13C4.44772 13 4 13.4477 4 14C4 14.5523 4.44772 15 5 15Z" />
<path d="M12 15C12.5523 15 13 14.5523 13 14C13 13.4477 12.5523 13 12 13C11.4477 13 11 13.4477 11 14C11 14.5523 11.4477 15 12 15Z" />
<path d="M2.4903 1.40195C2.46763 1.2886 2.40639 1.18661 2.317 1.11333C2.22761 1.04005 2.11559 0.999998 2 1H0V2H1.59L3.5097 11.5981C3.53237 11.7114 3.59361 11.8134 3.683 11.8867C3.77239 11.96 3.88441 12 4 12H13V11H4.41L4.01 9H13C13.1138 9 13.2241 8.96121 13.3129 8.89004C13.4016 8.81886 13.4634 8.71955 13.4881 8.6085L14.6222 3.5H13.5985L12.5991 8H3.81L2.4903 1.40195Z" />
<path d="M10.793 3.293L9 5.086V1H8V5.086L6.207 3.293L5.5 4L8.5 7L11.5 4L10.793 3.293Z" />
</svg>
