<svg xmlns="http://www.w3.org/2000/svg">
<path d="M5 15.0001C5.55228 15.0001 6 14.5524 6 14.0001C6 13.4478 5.55228 13.0001 5 13.0001C4.44772 13.0001 4 13.4478 4 14.0001C4 14.5524 4.44772 15.0001 5 15.0001Z" />
<path d="M12 15.0001C12.5523 15.0001 13 14.5524 13 14.0001C13 13.4478 12.5523 13.0001 12 13.0001C11.4477 13.0001 11 13.4478 11 14.0001C11 14.5524 11.4477 15.0001 12 15.0001Z" />
<path d="M14 3.5001H2.91L2.5 1.4001C2.47662 1.28546 2.41379 1.18265 2.32243 1.10957C2.23107 1.03648 2.11697 0.997743 2 1.0001H0V2.0001H1.59L3.5 11.6001C3.52338 11.7147 3.58621 11.8176 3.67757 11.8906C3.76893 11.9637 3.88303 12.0025 4 12.0001H13V11.0001H4.41L4 9.0001H13C13.1156 9.00293 13.2286 8.96561 13.3197 8.8945C13.4109 8.82339 13.4746 8.72289 13.5 8.6101L14.5 4.1101C14.5168 4.03591 14.5164 3.95888 14.4989 3.88487C14.4814 3.81085 14.4472 3.74181 14.399 3.68299C14.3508 3.62417 14.2898 3.57712 14.2206 3.54543C14.1515 3.51373 14.076 3.49823 14 3.5001ZM12.6 8.0001H3.81L3.11 4.5001H13.375L12.6 8.0001Z" />
</svg>
