<svg xmlns="http://www.w3.org/2000/svg">
  <path d="M11.5 1H10.5V3H8.5V4H10.5V6H11.5V4H13.5V3H11.5V1Z" />
  <path d="M7.5 1.99982H3.5C3.23502 2.0006 2.98112 2.10621 2.79375 2.29358C2.60638 2.48094 2.50078 2.73485 2.5 2.99982V12.9998C2.50078 13.2648 2.60638 13.5187 2.79375 13.7061C2.98112 13.8934 3.23502 13.999 3.5 13.9998H9.5C9.56572 14.0017 9.63106 13.9892 9.69149 13.9633C9.75192 13.9374 9.80601 13.8987 9.85 13.8498L13.35 10.3498C13.3989 10.3058 13.4376 10.2517 13.4635 10.1913C13.4894 10.1309 13.5018 10.0655 13.5 9.99982V7.00007H12.5V8.99982H9.5C9.23502 9.0006 8.98112 9.10621 8.79375 9.29358C8.60638 9.48094 8.50078 9.73485 8.5 9.99982V12.9998H3.5V2.99982H7.5V1.99982ZM12.3 9.99982L9.5 12.7998V9.99982H12.3Z" />
</svg>
