<svg xmlns="http://www.w3.org/2000/svg">
<g>
<path fill-rule="evenodd" clip-rule="evenodd" d="M0.154743 3.14348C-0.0515812 3.34982 -0.0515812 3.68432 0.154743 3.89066C0.361068 4.097 0.695584 4.097 0.901908 3.89066L1.27573 3.51684L3.14341 5.38453L1.64909 6.87889C1.44274 7.08523 1.44274 7.41974 1.64909 7.62608C1.85538 7.83241 2.18989 7.83241 2.39622 7.62608L3.14322 6.87903L9.49433 13.2303C10.2602 13.9962 11.3795 14.1935 12.3274 13.8221L12.8565 14.3511C13.1331 14.6277 13.525 14.7189 13.8776 14.6246L15.0981 15.8452C15.3044 16.0516 15.6389 16.0516 15.8452 15.8452C16.0516 15.6389 16.0516 15.3044 15.8452 15.098L14.6245 13.8773C14.7185 13.5248 14.6273 13.1332 14.3508 12.8567L13.8219 12.3278C14.1934 11.3798 13.9961 10.2603 13.2302 9.49435L6.87905 3.14311L7.62637 2.39579C7.83271 2.18946 7.83271 1.85495 7.62637 1.64861C7.42008 1.44229 7.08553 1.44229 6.87923 1.64861L5.38487 3.14298L3.51723 1.27528L3.89055 0.90193C4.09688 0.695601 4.09688 0.361076 3.89055 0.154747C3.68425 -0.0515823 3.34975 -0.0515823 3.14341 0.154747L0.154743 3.14348ZM4.73914 3.78875L2.8715 1.92102L1.92145 2.87107L3.78913 4.7388L4.73914 3.78875ZM6.23332 3.78889L3.78895 6.2333L5.80074 8.24514L8.24511 5.80067L6.23332 3.78889ZM6.54788 8.99232L7.66865 10.1131L8.51734 9.26441C8.72367 9.05807 9.05818 9.05807 9.26452 9.26441C9.47086 9.47075 9.47086 9.80525 9.26452 10.0116L8.41583 10.8603L9.16279 11.6073L10.0116 10.7585C10.2179 10.5522 10.5524 10.5522 10.7587 10.7585C10.965 10.9648 10.965 11.2993 10.7587 11.5057L9.90997 12.3545L10.1401 12.5845C10.6414 13.0859 11.3742 13.2149 11.9947 12.9714L12.9713 11.9948C13.2148 11.3743 13.0858 10.6415 12.5844 10.1401L8.99225 6.54786L6.54788 8.99232ZM13.7178 13.517C13.7139 13.5119 13.7097 13.5071 13.7051 13.5025L13.3288 13.1262C13.297 13.1616 13.2642 13.1963 13.2302 13.2303C13.1961 13.2643 13.1613 13.2973 13.1259 13.3291L13.5022 13.7054C13.5069 13.71 13.5117 13.7142 13.5168 13.7181C13.5399 13.6771 13.5689 13.6386 13.6037 13.6037C13.6385 13.5689 13.6769 13.54 13.7178 13.517Z" />
</g>
</svg>
