<svg xmlns="http://www.w3.org/2000/svg">
<path d="M6.05 1.00003C5.09111 0.996765 4.15233 1.27492 3.35 1.80003L6.55 5.00003C6.65657 5.09096 6.74387 5.20229 6.80675 5.32748C6.86963 5.45267 6.90683 5.58917 6.91615 5.72895C6.92547 5.86873 6.90672 6.00897 6.86101 6.14139C6.8153 6.27382 6.74355 6.39576 6.65 6.50003C6.54572 6.59359 6.42378 6.66534 6.29136 6.71104C6.15893 6.75675 6.0187 6.7755 5.87892 6.76618C5.73914 6.75686 5.60263 6.71967 5.47745 6.65678C5.35226 6.5939 5.24092 6.5066 5.15 6.40003L1.85 3.20003C1.27944 4.0396 0.98254 5.03509 0.999995 6.05003C1.00526 7.38775 1.53901 8.66918 2.48492 9.6151C3.43084 10.561 4.71227 11.0948 6.05 11.1C6.48778 11.1024 6.92426 11.0521 7.35 10.95L10.7 14.3C11.1708 14.7708 11.8092 15.0353 12.475 15.0353C13.1407 15.0353 13.7792 14.7708 14.25 14.3C14.7208 13.8293 14.9852 13.1908 14.9852 12.525C14.9852 11.8593 14.7208 11.2208 14.25 10.75L10.9 7.40003C11.002 6.97429 11.0524 6.53781 11.05 6.10003C11.0633 5.43505 10.9438 4.7741 10.6985 4.15589C10.4532 3.53767 10.087 2.97461 9.62136 2.49967C9.15574 2.02473 8.60003 1.64747 7.9868 1.38997C7.37356 1.13246 6.7151 0.999895 6.05 1.00003ZM10.05 6.05003C10.0493 6.40532 9.99877 6.75875 9.89999 7.10003L9.75 7.65003L10.15 8.05003L13.5 11.4C13.6427 11.5351 13.7562 11.6979 13.8336 11.8785C13.911 12.0591 13.9506 12.2536 13.95 12.45C13.9556 12.6472 13.9183 12.8433 13.8406 13.0246C13.7629 13.2059 13.6467 13.3681 13.5 13.5C13.3646 13.6422 13.2017 13.7554 13.0212 13.8328C12.8407 13.9101 12.6464 13.95 12.45 13.95C12.2536 13.95 12.0593 13.9101 11.8788 13.8328C11.6983 13.7554 11.5354 13.6422 11.4 13.5L8.05 10.15L7.65 9.75003L7.1 9.90003C6.75871 9.9988 6.40528 10.0493 6.05 10.05C4.98753 10.0471 3.96697 9.63527 3.2 8.90003C2.81212 8.53506 2.50496 8.09292 2.29828 7.60206C2.09161 7.11121 1.99 6.58252 2 6.05003C2.00068 5.67831 2.05113 5.30836 2.15 4.95003L4.35 7.15003C4.53589 7.35232 4.7602 7.51559 5.00984 7.6303C5.25948 7.74502 5.52946 7.80889 5.80404 7.8182C6.07862 7.82751 6.3523 7.78206 6.60914 7.68452C6.86598 7.58697 7.10083 7.43927 7.3 7.25003C7.48924 7.05086 7.63693 6.81601 7.73448 6.55917C7.83203 6.30234 7.87747 6.02865 7.86817 5.75407C7.85886 5.47949 7.79499 5.20951 7.68027 4.95987C7.56555 4.71023 7.40229 4.48593 7.2 4.30003L5 2.10003C5.32337 1.99776 5.66085 1.94713 6 1.95003C7.06246 1.95298 8.08302 2.36478 8.85 3.10003C9.61768 3.89037 10.048 4.94823 10.05 6.05003Z" />
</svg>
