<svg xmlns="http://www.w3.org/2000/svg">
<path d="M13.925 14.5H15L12 7H10.825L7.825 14.5H8.9L9.7 12.5H13.125L13.925 14.5ZM10.1 11.5L11.41 8.22L12.725 11.5H10.1Z" />
<path d="M9 3.5V2.5H5.5V1H4.5V2.5H1V3.5H6.37C6.09296 4.64268 5.54601 5.7023 4.775 6.59C4.2724 5.96675 3.88469 5.25906 3.63 4.5H2.58C2.89474 5.51831 3.40416 6.46583 4.08 7.29C3.33306 8.01453 2.45828 8.59433 1.5 9L1.875 9.93C2.95179 9.47535 3.93248 8.82042 4.765 8C5.58242 8.83165 6.56294 9.48533 7.645 9.92L8 9C7.0362 8.62745 6.16331 8.05291 5.44 7.315C6.39729 6.22398 7.07053 4.91357 7.4 3.5H9Z" />
</svg>
