<svg xmlns="http://www.w3.org/2000/svg">
<g clip-path="url(#clip0_11143_278837)">
<path d="M11.5 4.50244H14.5C14.7652 4.50244 15.0196 4.39708 15.2071 4.20955C15.3946 4.02201 15.5 3.76766 15.5 3.50244V1.50244C15.5 1.23722 15.3946 0.982871 15.2071 0.795335C15.0196 0.607798 14.7652 0.502441 14.5 0.502441H11.5C11.2348 0.502441 10.9804 0.607798 10.7929 0.795335C10.6054 0.982871 10.5 1.23722 10.5 1.50244V2.00244H5.5V1.50244C5.5 1.23722 5.39464 0.982871 5.20711 0.795335C5.01957 0.607798 4.76522 0.502441 4.5 0.502441H1.5C1.23478 0.502441 0.98043 0.607798 0.792893 0.795335C0.605357 0.982871 0.5 1.23722 0.5 1.50244V3.50244C0.5 3.76766 0.605357 4.02201 0.792893 4.20955C0.98043 4.39708 1.23478 4.50244 1.5 4.50244H4.5C4.76522 4.50244 5.01957 4.39708 5.20711 4.20955C5.39464 4.02201 5.5 3.76766 5.5 3.50244V3.00244H7.5V13.0024C7.5003 13.2676 7.60576 13.5217 7.79323 13.7092C7.9807 13.8967 8.23488 14.0021 8.5 14.0024H10.5V14.5024C10.5 14.7677 10.6054 15.022 10.7929 15.2095C10.9804 15.3971 11.2348 15.5024 11.5 15.5024H14.5C14.7652 15.5024 15.0196 15.3971 15.2071 15.2095C15.3946 15.022 15.5 14.7677 15.5 14.5024V12.5024C15.5 12.2372 15.3946 11.9829 15.2071 11.7953C15.0196 11.6078 14.7652 11.5024 14.5 11.5024H11.5C11.2348 11.5024 10.9804 11.6078 10.7929 11.7953C10.6054 11.9829 10.5 12.2372 10.5 12.5024V13.0024H8.5V8.50244H10.5V9.00244C10.5 9.26766 10.6054 9.52201 10.7929 9.70955C10.9804 9.89708 11.2348 10.0024 11.5 10.0024H14.5C14.7652 10.0024 15.0196 9.89708 15.2071 9.70955C15.3946 9.52201 15.5 9.26766 15.5 9.00244V7.00244C15.5 6.73723 15.3946 6.48287 15.2071 6.29533C15.0196 6.1078 14.7652 6.00244 14.5 6.00244H11.5C11.2348 6.00244 10.9804 6.1078 10.7929 6.29533C10.6054 6.48287 10.5 6.73723 10.5 7.00244V7.50244H8.5V3.00244H10.5V3.50244C10.5 3.76766 10.6054 4.02201 10.7929 4.20955C10.9804 4.39708 11.2348 4.50244 11.5 4.50244ZM11.5 1.50244H14.5V3.50244H11.5V1.50244ZM4.5 3.50244H1.5V1.50244H4.5V3.50244ZM11.5 12.5024H14.5V14.5024H11.5V12.5024ZM11.5 7.00244H14.5V9.00244H11.5V7.00244Z" />
</g>
<defs>
<clipPath id="clip0_11143_278837">
<rect width="16" height="16" fill="white"/>
</clipPath>
</defs>
</svg>
