<svg xmlns="http://www.w3.org/2000/svg">
<g clip-path="url(#clip0_11143_281062)">
<path d="M15.5 1.5H8.5C8.36739 1.5 8.24021 1.55268 8.14645 1.64645C8.05268 1.74021 8 1.86739 8 2V8.5C8 8.63261 8.05268 8.75979 8.14645 8.85355C8.24021 8.94732 8.36739 9 8.5 9H15.5C15.6326 9 15.7598 8.94732 15.8536 8.85355C15.9473 8.75979 16 8.63261 16 8.5V2C16 1.86739 15.9473 1.74021 15.8536 1.64645C15.7598 1.55268 15.6326 1.5 15.5 1.5ZM14 4.5H12.5V6H14V7H12.5V8H11.5V7H10V6H11.5V4.5H10V3.5H11.5V2.5H12.5V3.5H14V4.5Z" />
<path d="M7.5 15H6.5V13C6.50363 12.802 6.46731 12.6053 6.39321 12.4217C6.31911 12.2381 6.20876 12.0713 6.06874 11.9313C5.92872 11.7912 5.76192 11.6809 5.57829 11.6068C5.39466 11.5327 5.19798 11.4964 5 11.5H3C2.80202 11.4964 2.60534 11.5327 2.42171 11.6068C2.23808 11.6809 2.07127 11.7912 1.93126 11.9313C1.79124 12.0713 1.68088 12.2381 1.60679 12.4217C1.53269 12.6053 1.49637 12.802 1.5 13V15H0.499998V13C0.496751 12.6708 0.559198 12.3442 0.683685 12.0395C0.808171 11.7347 0.992197 11.4578 1.22499 11.225C1.45779 10.9922 1.73468 10.8082 2.03946 10.6837C2.34424 10.5592 2.67079 10.4968 3 10.5H5C5.32921 10.4968 5.65576 10.5592 5.96054 10.6837C6.26532 10.8082 6.54221 10.9922 6.775 11.225C7.0078 11.4578 7.19183 11.7347 7.31631 12.0395C7.4408 12.3442 7.50325 12.6708 7.5 13V15Z" />
<path d="M4 5.5C4.39782 5.5 4.77936 5.65804 5.06066 5.93934C5.34196 6.22064 5.5 6.60218 5.5 7C5.5 7.39782 5.34196 7.77936 5.06066 8.06066C4.77936 8.34196 4.39782 8.5 4 8.5C3.60217 8.5 3.22064 8.34196 2.93934 8.06066C2.65803 7.77936 2.5 7.39782 2.5 7C2.5 6.60218 2.65803 6.22064 2.93934 5.93934C3.22064 5.65804 3.60217 5.5 4 5.5ZM4 4.5C3.33696 4.5 2.70107 4.76339 2.23223 5.23223C1.76339 5.70107 1.5 6.33696 1.5 7C1.5 7.66304 1.76339 8.29893 2.23223 8.76777C2.70107 9.23661 3.33696 9.5 4 9.5C4.66304 9.5 5.29892 9.23661 5.76777 8.76777C6.23661 8.29893 6.5 7.66304 6.5 7C6.5 6.33696 6.23661 5.70107 5.76777 5.23223C5.29892 4.76339 4.66304 4.5 4 4.5Z" />
</g>
<defs>
<clipPath id="clip0_11143_281062">
<rect width="16" height="16" fill="white"/>
</clipPath>
</defs>
</svg>
