<svg xmlns="http://www.w3.org/2000/svg">
<path d="M2.62003 11.255L3.33503 10.545C2.55214 9.84206 1.93702 8.97234 1.53503 8C2.55003 5.465 5.35003 3.5 8.00003 3.5C8.68198 3.509 9.35775 3.63064 10 3.86L10.775 3.08C9.89636 2.70866 8.95388 2.51167 8.00003 2.5C6.37029 2.56129 4.79423 3.09878 3.46663 4.04604C2.13904 4.99331 1.11811 6.30882 0.530031 7.83C0.490315 7.93985 0.490315 8.06015 0.530031 8.17C0.974155 9.34851 1.69025 10.4055 2.62003 11.255Z" />
<path d="M6.00003 7.865C6.0348 7.38586 6.24088 6.93524 6.58057 6.59554C6.92027 6.25584 7.37089 6.04977 7.85003 6.015L8.75503 5.105C8.24791 4.97147 7.71465 4.97321 7.20841 5.11003C6.70217 5.24685 6.24064 5.51399 5.86983 5.8848C5.49902 6.25561 5.23189 6.71714 5.09506 7.22338C4.95824 7.72962 4.9565 8.26288 5.09003 8.77L6.00003 7.865Z" />
<path d="M15.47 7.83C14.8967 6.3366 13.8991 5.04351 12.6 4.11L15 1.705L14.295 1L1.00003 14.295L1.70503 15L4.25503 12.45C5.39197 13.117 6.68205 13.4787 8.00003 13.5C9.62977 13.4387 11.2058 12.9012 12.5334 11.954C13.861 11.0067 14.882 9.69118 15.47 8.17C15.5097 8.06015 15.5097 7.93985 15.47 7.83ZM10 8C9.99793 8.35005 9.90398 8.69342 9.72758 8.99578C9.55119 9.29815 9.29852 9.54892 8.99484 9.72303C8.69115 9.89714 8.34709 9.9885 7.99703 9.98797C7.64697 9.98744 7.30319 9.89503 7.00003 9.72L9.72003 7C9.89979 7.30287 9.99637 7.64783 10 8ZM8.00003 12.5C6.95106 12.4817 5.92198 12.2107 5.00003 11.71L6.27003 10.44C6.8477 10.8408 7.5478 11.026 8.2481 10.9632C8.94839 10.9005 9.6044 10.5937 10.1016 10.0965C10.5987 9.59937 10.9055 8.94336 10.9683 8.24307C11.031 7.54277 10.8459 6.84267 10.445 6.265L11.88 4.83C13.0273 5.61749 13.9245 6.71771 14.465 8C13.45 10.535 10.65 12.5 8.00003 12.5Z" />
</svg>
