<svg id="omrs-logo-icon" width="121" height="118" viewBox="0 0 121 118" xmlns="http://www.w3.org/2000/svg">
  <path fill-rule="evenodd" clip-rule="evenodd" d="M40.436 39.474C45.505 34.405 52.509 31.269 60.247 31.269C67.964 31.269 74.952 34.391 80.017 39.436L80.038 20.78C74.107 17.725 67.376 16 60.247 16C53.114 16 46.348 17.943 40.415 20.999L40.436 39.474Z" fill="var(--logo-red)"/>
  <path fill-rule="evenodd" clip-rule="evenodd" d="M80.038 79.064C74.969 84.134 67.968 87.269 60.23 87.269C52.513 87.269 45.525 84.148 40.456 79.102L40.436 97.759C46.37 100.813 53.098 102.539 60.23 102.539C67.363 102.539 74.093 100.813 80.024 97.758L80.038 79.064Z" fill="var(--logo-orange)"/>
  <path fill-rule="evenodd" clip-rule="evenodd" d="M40.474 79.089C35.405 74.02 32.269 67.019 32.269 59.281C32.269 51.564 35.39 44.577 40.436 39.508L21.779 39.488C18.725 45.421 17 52.148 17 59.281C17 66.414 18.725 73.144 21.782 79.076L40.474 79.089Z" fill="var(--logo-purple)"/>
  <path fill-rule="evenodd" clip-rule="evenodd" d="M80.027 39.435C85.096 44.503 88.232 51.508 88.232 59.246C88.232 66.963 85.111 73.951 80.064 79.015L98.722 79.036C101.776 73.105 103.501 66.375 103.501 59.246C103.501 52.112 101.776 45.381 98.72 39.448L80.027 39.435Z" fill="var(--logo-green)"/>
</svg>
